#N canvas 352 81 383 332 10;
#X obj 29 35 inlet;
#X obj 195 35 inlet;
#X obj 29 250 outlet;
#X text 76 250 to box number;
#X text 74 36 from box number;
#X obj 193 248 outlet;
#X text 240 248 to slider;
#X text 240 36 from slider;
#X obj 213 117 hradio 15 1 0 2 empty empty empty 0 -8 0 10 -262144
-1 -1 0;
#X floatatom 258 176 1 0 0 0 - - -;
#X obj 228 193 spigot;
#X floatatom 201 174 1 0 0 0 - - -;
#X obj 171 191 spigot;
#X floatatom 116 180 1 0 0 0 - - -;
#X obj 86 197 spigot;
#X floatatom 59 178 1 0 0 0 - - -;
#X obj 29 195 spigot;
#X obj 59 155 == 0;
#X obj 96 155 == 1;
#X obj 201 151 == 1;
#X obj 238 151 == 0;
#X msg 201 90 0;
#X msg 235 90 1;
#X text 110 298 2016.antideadlock.v3.(c)RRAF-DM/FFCLRP-USP;
#X floatatom 43 57 5 0 0 0 - - -;
#X obj 232 60 hsl 128 15 0 127 0 0 empty empty empty -2 -8 0 10 -262144
-1 -1 7700 1;
#X connect 0 0 24 0;
#X connect 0 0 16 0;
#X connect 1 0 14 0;
#X connect 1 0 25 0;
#X connect 8 0 17 0;
#X connect 8 0 18 0;
#X connect 8 0 19 0;
#X connect 8 0 20 0;
#X connect 9 0 10 1;
#X connect 10 0 5 0;
#X connect 11 0 12 1;
#X connect 12 0 2 0;
#X connect 13 0 14 1;
#X connect 14 0 12 0;
#X connect 15 0 16 1;
#X connect 16 0 10 0;
#X connect 17 0 15 0;
#X connect 18 0 13 0;
#X connect 19 0 11 0;
#X connect 20 0 9 0;
#X connect 21 0 8 0;
#X connect 22 0 8 0;
#X connect 24 0 21 0;
#X connect 25 0 22 0;
