#N canvas 544 145 450 225 10;
#N canvas 0 0 450 300 (subpatch) 0;
#X array Espectro 2048 float 0;
#X coords 0 100 2047 0 257 130 1;
#X restore 176 16 graph;
#X obj 90 40 metro 100;
#X obj 90 18 loadbang;
#X obj 23 -23 inlet~;
#X obj 23 7 rfft~;
#X obj 23 40 *~;
#X obj 54 40 *~;
#X obj 23 70 sqrt~;
#X obj 23 96 biquad~ 0 0 0 0 1;
#X obj 23 129 tabwrite~ Espectro;
#X obj 89 -21 block~ 4096 1;
#X connect 1 0 9 0;
#X connect 2 0 1 0;
#X connect 3 0 4 0;
#X connect 4 0 5 0;
#X connect 4 0 5 1;
#X connect 4 1 6 0;
#X connect 4 1 6 1;
#X connect 5 0 7 0;
#X connect 6 0 7 0;
#X connect 7 0 8 0;
#X connect 8 0 9 0;
#X coords 0 -1 1 1 270 150 2 170 0;
