#N canvas 170 56 1007 643 10;
#X obj 310 60 inlet~;
#X obj 499 338 outlet~;
#X obj 201 173 cnv 15 198 246 empty empty \$1 4 8 0 11 -262139 -66577
0;
#X obj 313 204 hradio 10 1 0 8 empty empty empty 0 -8 0 10 -191407
-1 -1 0;
#X obj 417 60 inlet;
#X obj 455 60 inlet;
#X obj 166 208 + 1;
#X obj 140 284 *;
#X text 261 368 Q;
#X obj 268 203 nbx 4 11 -1e+37 1e+37 0 0 empty empty empty 0 -8 0 9
-191407 -45076 -262144 1 256;
#X obj 206 332 nbx 5 15 0 8000 0 0 \$0-fc empty empty 0 -8 0 10 -262130
-1 -1 0 256;
#X obj 209 350 hsl 110 15 0 8000 0 0 empty empty empty -2 -8 0 10 -257985
-1 -1 0 1;
#X obj 206 368 nbx 5 15 0.8 100 0 0 \$0-Q empty empty 0 -8 0 10 -262130
-1 -1 0.8 256;
#X obj 209 386 hsl 110 15 0.8 100 0 0 empty 1039-Q-rcv empty -2 -8
0 10 -257985 -1 -1 0 1;
#N canvas 540 89 703 563 vol1 0;
#X obj 307 219 f;
#X obj 349 221 moses 0;
#X obj 307 190 + 100;
#X floatatom 247 103 5 0 0 0 - - -;
#X floatatom 304 158 5 0 0 0 - - -;
#X obj 247 58 dbtorms;
#X obj 247 130 expr 20 * (log( $f1 + (0.0000112202) ) / log(10) );
#X obj 247 30 + 100;
#X obj 417 288 t b;
#X obj 417 315 f;
#X msg 369 315 0;
#X obj 369 262 moses 1;
#X obj 369 288 t b f;
#X obj 370 403 dbtorms;
#X obj 370 471 line~;
#X obj 370 512 *~;
#X obj 370 438 pack 0 10;
#X obj 453 288 expr if ($f2 == 1 \, $f1 \, 0) \;;
#X obj 221 453 pvu~;
#X floatatom 323 440 5 0 0 0 - - -;
#X obj 29 326 s \$0-SetSliderVolume;
#X msg 29 299 set \$1;
#X msg 26 155 \; pd dsp 1 \;;
#X msg 88 197 0;
#X obj 25 196 loadbang;
#X obj 25 114 inlet;
#X obj 99 155 inlet;
#X obj 247 3 inlet;
#X obj 234 253 outlet;
#X obj 303 4 inlet;
#X obj 376 32 inlet;
#X obj 491 59 inlet~;
#X obj 406 535 outlet~;
#X obj 41 32 route vol;
#X obj 147 245 outlet;
#X connect 0 0 11 0;
#X connect 0 0 17 1;
#X connect 1 1 9 1;
#X connect 1 1 17 0;
#X connect 2 0 1 0;
#X connect 3 0 6 0;
#X connect 5 0 3 0;
#X connect 6 0 4 0;
#X connect 6 0 28 0;
#X connect 7 0 5 0;
#X connect 8 0 9 0;
#X connect 9 0 13 0;
#X connect 10 0 13 0;
#X connect 11 0 12 0;
#X connect 11 1 8 0;
#X connect 12 0 10 0;
#X connect 13 0 16 0;
#X connect 13 0 19 0;
#X connect 14 0 15 0;
#X connect 15 0 18 0;
#X connect 15 0 32 0;
#X connect 16 0 14 0;
#X connect 17 0 13 0;
#X connect 18 0 28 0;
#X connect 21 0 20 0;
#X connect 23 0 34 0;
#X connect 24 0 23 0;
#X connect 25 0 22 0;
#X connect 26 0 23 0;
#X connect 27 0 7 0;
#X connect 29 0 0 0;
#X connect 30 0 21 0;
#X connect 30 0 2 0;
#X connect 31 0 15 1;
#X connect 33 0 34 0;
#X restore 460 306 pd vol1;
#X obj 341 265 vsl 13 120 -100 12 0 1 empty \$0-SetSliderVolume empty
0 -9 0 8 -1 -262144 -1 10625 1;
#X obj 377 184 tgl 16 0 empty empty On 0 -6 0 11 -257985 -1 -1 0 1
;
#X obj 361 236 bng 12 250 50 0 empty empty 0dB 0 19 0 8 -191407 -1
-1;
#X obj 341 398 nbx 3 14 -100 44 0 1 empty empty dB 39 8 0 10 -262144
-1 -1 0 256;
#X obj 286 148 r OnOff;
#X obj 361 266 vu 12 120 empty empty -1 -8 0 8 -66577 -1 1 0;
#N canvas 809 113 450 300 bpq2 0;
#X obj 67 35 inlet~;
#X obj 212 35 inlet;
#X obj 116 35 inlet;
#X obj 212 86 switch~;
#X obj 166 35 inlet;
#X obj 67 212 outlet~;
#X obj 67 86 vcf_filter~ bpq2~;
#X connect 0 0 6 0;
#X connect 1 0 3 0;
#X connect 2 0 6 1;
#X connect 4 0 6 2;
#X connect 6 0 5 0;
#X restore 499 255 pd bpq2;
#N canvas 338 102 450 300 selector 0;
#X obj 177 26 inlet;
#X msg 49 153 1;
#X msg 78 153 0;
#X msg 108 153 1;
#X msg 137 153 0;
#X msg 167 153 1;
#X msg 196 153 0;
#X obj 49 243 outlet;
#X obj 99 243 outlet;
#X obj 149 243 outlet;
#X obj 177 66 select 0 1 2 3 4 5;
#X msg 227 153 1;
#X msg 256 153 0;
#X msg 286 153 1;
#X msg 315 153 0;
#X msg 345 153 1;
#X msg 374 153 0;
#X obj 204 242 outlet;
#X obj 254 242 outlet;
#X obj 304 242 outlet;
#X connect 0 0 10 0;
#X connect 1 0 7 0;
#X connect 2 0 8 0;
#X connect 2 0 9 0;
#X connect 2 0 17 0;
#X connect 2 0 18 0;
#X connect 2 0 19 0;
#X connect 3 0 8 0;
#X connect 4 0 7 0;
#X connect 4 0 9 0;
#X connect 4 0 17 0;
#X connect 4 0 18 0;
#X connect 4 0 19 0;
#X connect 5 0 9 0;
#X connect 6 0 8 0;
#X connect 6 0 7 0;
#X connect 6 0 17 0;
#X connect 6 0 18 0;
#X connect 6 0 19 0;
#X connect 10 0 1 0;
#X connect 10 0 2 0;
#X connect 10 1 3 0;
#X connect 10 1 4 0;
#X connect 10 2 5 0;
#X connect 10 2 6 0;
#X connect 10 3 11 0;
#X connect 10 3 12 0;
#X connect 10 4 13 0;
#X connect 10 4 14 0;
#X connect 10 5 15 0;
#X connect 10 5 16 0;
#X connect 11 0 17 0;
#X connect 12 0 7 0;
#X connect 12 0 8 0;
#X connect 12 0 9 0;
#X connect 12 0 18 0;
#X connect 12 0 19 0;
#X connect 13 0 18 0;
#X connect 14 0 7 0;
#X connect 14 0 8 0;
#X connect 14 0 9 0;
#X connect 14 0 17 0;
#X connect 14 0 19 0;
#X connect 15 0 19 0;
#X connect 16 0 7 0;
#X connect 16 0 8 0;
#X connect 16 0 9 0;
#X connect 16 0 17 0;
#X connect 16 0 18 0;
#X restore 566 150 pd selector;
#X obj 210 148 loadbang;
#X text 261 331 Central f(Hz);
#X obj 203 3 symbol \$1;
#X obj 48 208 loadbang;
#X msg 107 238 0;
#X text 14 3 NAME of the filter <ARG1> -->;
#X obj 530 362 loadbang;
#X obj 203 -21 loadbang;
#X text 267 185 partial;
#X text 428 42 fc;
#X text 468 42 Q;
#X msg 167 119 1;
#X text 13 -44 REACTIVE;
#X obj 206 203 nbx 4 11 20 8000 0 0 empty empty empty 0 -8 0 9 -162280
-45076 -262144 20 256;
#X text 202 216 filter type;
#X obj 359 61 inlet f0;
#X text 377 42 f0;
#X text 247 201 f0;
#N canvas 348 137 418 449 vcf_bp2~ 0;
#X obj 91 312 outlet~;
#X text 132 91 ~signal_in~;
#X text 88 42 frequency and Q;
#X text 88 29 bandpass 2.order with signal-inlets for;
#X text 189 388 IEM KUG;
#X text 173 376 musil;
#X text 203 376 @;
#X text 209 376 iem.at;
#X text 124 365 (c) Thomas Musil 2000 - 2005;
#X text 172 398 Graz \, Austria;
#X obj 91 91 inlet~;
#X text 181 132 Central frequency (Hz);
#X text 144 311 ~signal_out~;
#X obj 91 269 vcf_filter~ bp2;
#X obj 134 130 inlet~;
#X text 223 180 Q;
#X obj 178 180 inlet~;
#X obj 267 182 inlet;
#X obj 267 212 switch~;
#X obj 134 222 iem_cot4~;
#X connect 10 0 13 0;
#X connect 13 0 0 0;
#X connect 14 0 19 0;
#X connect 16 0 13 2;
#X connect 17 0 18 0;
#X connect 19 0 13 1;
#X restore 557 254 pd vcf_bp2~;
#X obj 210 234 vradio 15 1 0 6 empty empty empty 0 -8 0 10 -162280
-1 -1 0;
#X text 228 263 vcf band pass 2nd;
#X text 228 277 vcf band pass 4th;
#X text 228 292 vcf band pass 6th;
#X text 228 307 vcf band pass 8th;
#N canvas 677 131 446 533 vcf_bp4~ 0;
#X obj 30 58 inlet~;
#X obj 30 368 outlet~;
#X text 79 57 ~signal_in~;
#X text 40 336 ~filtered signal_out~;
#X text 146 363 no arg.;
#X obj 74 86 inlet~;
#X obj 158 117 inlet~;
#X text 204 117 <signal> Q [-];
#X text 22 18 vcf_bp4~;
#X text 120 87 <signal> center_frequency [Hz];
#X obj 30 279 vcf_filter~ bp2;
#X obj 30 317 vcf_filter~ bp2;
#X text 145 16 bandpass 4.order with signal-inlets;
#X text 177 30 for frequency and Q;
#X obj 158 140 *~ 0.6432;
#X obj 73 172 iem_cot4~;
#X text 176 445 IEM KUG;
#X text 160 433 musil;
#X text 190 433 @;
#X text 196 433 iem.at;
#X text 111 422 (c) Thomas Musil 2000 - 2005;
#X text 159 455 Graz \, Austria;
#X obj 380 221 inlet;
#X obj 380 251 switch~;
#X connect 0 0 10 0;
#X connect 5 0 15 0;
#X connect 6 0 14 0;
#X connect 10 0 11 0;
#X connect 11 0 1 0;
#X connect 14 0 10 2;
#X connect 14 0 11 2;
#X connect 15 0 10 1;
#X connect 15 0 11 1;
#X connect 22 0 23 0;
#X restore 634 254 pd vcf_bp4~;
#N canvas 249 114 446 533 vcf_bp6~ 0;
#X text 189 480 IEM KUG;
#X text 173 468 musil;
#X text 203 468 @;
#X text 209 468 iem.at;
#X text 124 457 (c) Thomas Musil 2000 - 2005;
#X text 172 490 Graz \, Austria;
#X obj 30 58 inlet~;
#X obj 30 368 outlet~;
#X text 79 57 ~signal_in~;
#X text 40 336 ~filtered signal_out~;
#X text 146 363 no arg.;
#X obj 73 85 inlet~;
#X obj 153 112 inlet~;
#X text 199 112 <signal> Q [-];
#X text 119 86 <signal> center_frequency [Hz];
#X obj 30 293 vcf_filter~ bp2;
#X obj 30 317 vcf_filter~ bp2;
#X text 177 30 for frequency and Q;
#X text 22 18 vcf_bp6~;
#X text 145 16 bandpass 6.order with signal-inlets;
#X obj 30 268 vcf_filter~ bp2;
#X obj 153 160 *~ 0.51;
#X obj 72 174 iem_cot4~;
#X obj 328 209 inlet;
#X obj 328 239 switch~;
#X connect 6 0 20 0;
#X connect 11 0 22 0;
#X connect 12 0 21 0;
#X connect 15 0 16 0;
#X connect 16 0 7 0;
#X connect 20 0 15 0;
#X connect 21 0 20 2;
#X connect 21 0 15 2;
#X connect 21 0 16 2;
#X connect 22 0 20 1;
#X connect 22 0 15 1;
#X connect 22 0 16 1;
#X connect 23 0 24 0;
#X restore 713 254 pd vcf_bp6~;
#N canvas 127 146 446 533 vcf_bp8~ 0;
#X text 189 480 IEM KUG;
#X text 173 468 musil;
#X text 203 468 @;
#X text 209 468 iem.at;
#X text 124 457 (c) Thomas Musil 2000 - 2005;
#X text 172 490 Graz \, Austria;
#X obj 30 58 inlet~;
#X obj 30 368 outlet~;
#X text 79 57 ~signal_in~;
#X text 40 336 ~filtered signal_out~;
#X text 146 363 no arg.;
#X obj 72 86 inlet~;
#X obj 163 113 inlet~;
#X text 209 113 <signal> Q [-];
#X text 118 87 <signal> center_frequency [Hz];
#X obj 30 293 vcf_filter~ bp2;
#X obj 30 317 vcf_filter~ bp2;
#X text 177 30 for frequency and Q;
#X obj 30 268 vcf_filter~ bp2;
#X text 22 18 vcf_bp8~;
#X text 144 16 bandpass 8.order with signal-inlets;
#X obj 30 239 vcf_filter~ bp2;
#X obj 73 183 iem_cot4~;
#X obj 163 144 *~ 0.4345;
#X obj 328 209 inlet;
#X obj 328 239 switch~;
#X connect 6 0 21 0;
#X connect 11 0 22 0;
#X connect 12 0 23 0;
#X connect 15 0 16 0;
#X connect 16 0 7 0;
#X connect 18 0 15 0;
#X connect 21 0 18 0;
#X connect 22 0 15 1;
#X connect 22 0 16 1;
#X connect 22 0 18 1;
#X connect 22 0 21 1;
#X connect 23 0 21 2;
#X connect 23 0 18 2;
#X connect 23 0 15 2;
#X connect 23 0 16 2;
#X connect 24 0 25 0;
#X restore 792 253 pd vcf_bp8~;
#X text 227 232 band pass 1st;
#X text 227 248 band pass 2nd;
#N canvas 343 387 450 300 bp 0;
#X obj -24 34 inlet~;
#X obj 178 35 inlet;
#X obj 26 34 inlet;
#X obj 178 68 switch~;
#X obj 68 33 inlet;
#X obj 67 212 outlet~;
#X obj 67 86 bp~;
#X connect 0 0 6 0;
#X connect 1 0 3 0;
#X connect 2 0 6 1;
#X connect 4 0 6 2;
#X connect 6 0 5 0;
#X restore 451 255 pd bp;
#N canvas 682 64 305 273 fc~ 0;
#X floatatom 85 45 3 15 133 0 - - -;
#X obj 85 68 mtof;
#X floatatom 85 91 9 0 22000 0 - - -;
#X obj 85 145 line~;
#X obj 85 113 pack 0 30;
#X obj 24 28 init 69;
#X text 155 90 Central frequency (Hz);
#X obj 85 215 outlet~;
#X obj 145 44 r \$0-fc;
#X connect 0 0 1 0;
#X connect 1 0 2 0;
#X connect 2 0 4 0;
#X connect 3 0 7 0;
#X connect 4 0 3 0;
#X connect 5 0 0 0;
#X connect 8 0 2 0;
#X restore 733 148 pd fc~;
#N canvas 691 81 202 247 Q~ 0;
#X floatatom 35 100 7 0.01 1000 0 - - -;
#X obj 35 144 line~;
#X obj 35 122 pack 0 30;
#X obj 35 24 init 0.707;
#X obj 35 183 outlet~;
#X obj 109 52 r \$0-Q;
#X connect 0 0 2 0;
#X connect 1 0 4 0;
#X connect 2 0 1 0;
#X connect 3 0 0 0;
#X connect 5 0 0 0;
#X restore 835 149 pd Q~;
#N canvas 18 644 350 309 antideadlock-1 0;
#X obj 30 57 inlet;
#X obj 195 58 inlet;
#X obj 42 275 outlet;
#X text 89 275 to box number;
#X text 75 58 from box number;
#X obj 177 275 outlet;
#X text 224 275 to slider;
#X text 240 59 from slider;
#X text 271 19 s:\$0-xA;
#X text 271 34 r:\$0-A;
#X text 28 19 Set box send & receive ports like this:;
#X obj 213 130 hradio 15 1 0 2 empty empty empty 0 -8 0 10 -262144
-1 -1 1;
#X floatatom 171 230 5 0 0 0 - - -;
#X floatatom 228 232 5 0 0 0 - - -;
#X floatatom 258 189 1 0 0 0 - - -;
#X obj 228 206 spigot;
#X floatatom 201 187 1 0 0 0 - - -;
#X obj 171 204 spigot;
#X floatatom 116 193 1 0 0 0 - - -;
#X obj 86 210 spigot;
#X floatatom 59 191 1 0 0 0 - - -;
#X obj 29 208 spigot;
#X obj 59 168 == 0;
#X obj 96 168 == 1;
#X obj 201 164 == 1;
#X obj 238 164 == 0;
#X msg 201 103 0;
#X msg 235 103 1;
#X floatatom 29 235 5 0 0 0 - - -;
#X floatatom 86 235 5 0 0 0 - - -;
#X connect 0 0 26 0;
#X connect 0 0 21 0;
#X connect 1 0 19 0;
#X connect 1 0 27 0;
#X connect 11 0 22 0;
#X connect 11 0 23 0;
#X connect 11 0 24 0;
#X connect 11 0 25 0;
#X connect 12 0 2 0;
#X connect 13 0 5 0;
#X connect 14 0 15 1;
#X connect 15 0 13 0;
#X connect 16 0 17 1;
#X connect 17 0 12 0;
#X connect 18 0 19 1;
#X connect 19 0 29 0;
#X connect 20 0 21 1;
#X connect 21 0 28 0;
#X connect 22 0 20 0;
#X connect 23 0 18 0;
#X connect 24 0 16 0;
#X connect 25 0 14 0;
#X connect 26 0 11 0;
#X connect 27 0 11 0;
#X connect 28 0 15 0;
#X connect 29 0 17 0;
#X restore 29 365 pd antideadlock-1;
#N canvas 563 178 350 309 antideadlock-2 0;
#X obj 30 57 inlet;
#X obj 195 58 inlet;
#X obj 42 275 outlet;
#X text 89 275 to box number;
#X text 75 58 from box number;
#X obj 177 275 outlet;
#X text 224 275 to slider;
#X text 240 59 from slider;
#X text 271 19 s:\$0-xA;
#X text 271 34 r:\$0-A;
#X text 28 19 Set box send & receive ports like this:;
#X obj 213 130 hradio 15 1 0 2 empty empty empty 0 -8 0 10 -262144
-1 -1 0;
#X floatatom 171 230 5 0 0 0 - - -;
#X floatatom 228 232 5 0 0 0 - - -;
#X floatatom 258 189 1 0 0 0 - - -;
#X obj 228 206 spigot;
#X floatatom 201 187 1 0 0 0 - - -;
#X obj 171 204 spigot;
#X floatatom 116 193 1 0 0 0 - - -;
#X obj 86 210 spigot;
#X floatatom 59 191 1 0 0 0 - - -;
#X obj 29 208 spigot;
#X obj 59 168 == 0;
#X obj 96 168 == 1;
#X obj 201 164 == 1;
#X obj 238 164 == 0;
#X msg 201 103 0;
#X msg 235 103 1;
#X floatatom 29 235 5 0 0 0 - - -;
#X floatatom 86 235 5 0 0 0 - - -;
#X connect 0 0 26 0;
#X connect 0 0 21 0;
#X connect 1 0 19 0;
#X connect 1 0 27 0;
#X connect 11 0 22 0;
#X connect 11 0 23 0;
#X connect 11 0 24 0;
#X connect 11 0 25 0;
#X connect 12 0 2 0;
#X connect 13 0 5 0;
#X connect 14 0 15 1;
#X connect 15 0 13 0;
#X connect 16 0 17 1;
#X connect 17 0 12 0;
#X connect 18 0 19 1;
#X connect 19 0 29 0;
#X connect 20 0 21 1;
#X connect 21 0 28 0;
#X connect 22 0 20 0;
#X connect 23 0 18 0;
#X connect 24 0 16 0;
#X connect 25 0 14 0;
#X connect 26 0 11 0;
#X connect 27 0 11 0;
#X connect 28 0 15 0;
#X connect 29 0 17 0;
#X restore 29 574 pd antideadlock-2;
#X msg 137 238 8000;
#X msg 217 462 \; 1039-Q-rcv lin;
#X msg 323 462 \; 1039-Q-rcv log;
#X obj 318 372 hradio 9 1 0 2 empty empty lin/log -45 5 0 9 -262144
-1 -1 0;
#X obj 217 432 select 0;
#X obj 323 432 select 1;
#X msg 409 387 0;
#X obj 152 148 r \$1-f0;
#N canvas 230 65 560 651 update-history 0;
#X text 27 444 24/05/16: corrigido endereçamento r \$0-f0 para r \$1-f0
para patch receber valor de f0;
#X text 18 122 A fazer:;
#X text 17 374 Feito:;
#X text 34 42 v.8.4 (24/05/16 \, 27/08/14) \, v8.3 (15/04/14) \, v.8.2
(19/11/13);
#X text 13 21 Version history:;
#X text 27 481 24/05/16: alterado endereçamento dos boxes de receive:
de "r \$1-\$2" para "r\$1-fc" \, ..\$3 --> Q \, ..\$4 --> Vol \, e
adicionados novos receives para receber do Nanokontrol: \$1-fcN \$1-QN
\, \$1-VolN.;
#X text 27 394 09/11/16: mudado texto de lista de argumentos ARG para
não especificar os argumentos fc \, Q e Vol (já usados diretamente).
;
#X text 37 197 Atualizar o history do funew e do nano \, fazer o help
do Nano funcionar com a atualização nano5;
#X text 28 543 20/11/16 Alterado o funcionamento do Nanokontrol para
enviar para endereços adicionando "N" na frente;
#N canvas 798 127 451 350 regra3-1 0;
#X obj 79 248 / 128;
#X floatatom 26 219 7 0 10000 0 - - -;
#X floatatom 25 250 7 0 10000 0 - - -;
#X text 29 122 valor maximo;
#X obj 96 200 -;
#X obj 131 175 delay 20;
#X obj 81 224 *;
#X obj 78 271 +;
#X obj 78 309 outlet;
#X obj 291 58 cnv 15 100 60 empty empty empty 20 12 0 14 -233017 -66577
0;
#X obj 113 125 nbx 5 14 -1e+37 1e+37 0 0 empty empty empty 0 -8 0 10
-262144 -1 -1 0 256;
#X obj 113 142 nbx 5 14 -1e+37 1e+37 0 0 empty empty empty 0 -8 0 10
-262144 -1 -1 0 256;
#X text 168 125 max;
#X text 167 141 min;
#X text 29 142 valor minimo;
#X obj 27 49 inlet;
#X obj 69 49 inlet;
#X obj 111 50 inlet;
#X text 113 109 Rule3;
#X connect 0 0 7 0;
#X connect 1 0 6 0;
#X connect 4 0 6 1;
#X connect 5 0 4 0;
#X connect 6 0 0 0;
#X connect 6 0 2 0;
#X connect 7 0 8 0;
#X connect 10 0 4 0;
#X connect 11 0 4 1;
#X connect 11 0 7 1;
#X connect 11 0 5 0;
#X connect 15 0 1 0;
#X connect 16 0 10 0;
#X connect 17 0 11 0;
#X restore 458 562 pd regra3-1;
#N canvas 798 127 451 350 regra3-3 0;
#X obj 79 248 / 128;
#X floatatom 26 219 7 0 10000 0 - - -;
#X floatatom 25 250 7 0 10000 0 - - -;
#X text 29 122 valor maximo;
#X obj 96 200 -;
#X obj 131 175 delay 20;
#X obj 81 224 *;
#X obj 78 271 +;
#X obj 78 309 outlet;
#X obj 291 58 cnv 15 100 60 empty empty empty 20 12 0 14 -233017 -66577
0;
#X obj 113 125 nbx 5 14 -1e+37 1e+37 0 0 empty empty empty 0 -8 0 10
-262144 -1 -1 0 256;
#X obj 113 142 nbx 5 14 -1e+37 1e+37 0 0 empty empty empty 0 -8 0 10
-262144 -1 -1 0 256;
#X text 168 125 max;
#X text 167 141 min;
#X text 29 142 valor minimo;
#X obj 27 49 inlet;
#X obj 69 49 inlet;
#X obj 111 50 inlet;
#X text 113 109 Rule3;
#X connect 0 0 7 0;
#X connect 1 0 6 0;
#X connect 4 0 6 1;
#X connect 5 0 4 0;
#X connect 6 0 0 0;
#X connect 6 0 2 0;
#X connect 7 0 8 0;
#X connect 10 0 4 0;
#X connect 11 0 4 1;
#X connect 11 0 7 1;
#X connect 11 0 5 0;
#X connect 15 0 1 0;
#X connect 16 0 10 0;
#X connect 17 0 11 0;
#X restore 458 607 pd regra3-3;
#N canvas 767 57 451 350 regra3-2 0;
#X obj 79 248 / 128;
#X floatatom 26 219 7 0 10000 0 - - -;
#X floatatom 25 250 7 0 10000 0 - - -;
#X text 29 122 valor maximo;
#X obj 96 200 -;
#X obj 131 175 delay 20;
#X obj 81 224 *;
#X obj 78 271 +;
#X obj 78 309 outlet;
#X obj 291 58 cnv 15 100 60 empty empty empty 20 12 0 14 -233017 -66577
0;
#X obj 113 125 nbx 5 14 -1e+37 1e+37 0 0 empty empty empty 0 -8 0 10
-262144 -1 -1 0 256;
#X obj 113 142 nbx 5 14 -1e+37 1e+37 0 0 empty empty empty 0 -8 0 10
-262144 -1 -1 0 256;
#X text 168 125 max;
#X text 167 141 min;
#X text 29 142 valor minimo;
#X obj 27 49 inlet;
#X obj 69 49 inlet;
#X obj 111 50 inlet;
#X text 113 109 Rule3;
#X connect 0 0 7 0;
#X connect 1 0 6 0;
#X connect 4 0 6 1;
#X connect 5 0 4 0;
#X connect 6 0 0 0;
#X connect 6 0 2 0;
#X connect 7 0 8 0;
#X connect 10 0 4 0;
#X connect 11 0 4 1;
#X connect 11 0 7 1;
#X connect 11 0 5 0;
#X connect 15 0 1 0;
#X connect 16 0 10 0;
#X connect 17 0 11 0;
#X restore 458 584 pd regra3-2;
#X text 28 577 20/11/16 Substituição do regra3 para o Faixa (range
converter). Antigos regra3 usados mantidos aqui do lado.;
#X restore 797 473 pd update-history;
#X obj 110 183 r \$1-fc;
#X obj 106 399 r \$1-Q;
#X text 13 22 Central Frequency: fc;
#X text 14 39 Q Slide: Q;
#X text 13 56 Volume (output level): vol;
#X text 13 -26 Funew band-pass filter;
#X obj 29 479 faixa;
#X msg 146 453 100;
#X msg 114 453 0.8;
#X msg 47 453 0;
#X msg 80 453 127;
#X obj 47 423 loadbang;
#X obj 29 399 r nano-\$1-Q;
#X obj 30 269 faixa;
#X msg 48 238 0;
#X msg 77 238 127;
#X obj 30 183 r nano-\$1-fc;
#X obj 435 409 faixa;
#X msg 453 387 0;
#X msg 486 387 127;
#X obj 167 284 *;
#X obj 205 119 r \$1-partial;
#X obj 206 97 r nano-\$1-partial;
#X text 13 74 Partial: partial;
#X text 12 92 f0 (fundamental freq): f0;
#X text 204 403 Funew;
#X msg 521 386 -100;
#X msg 555 386 12;
#X obj 435 361 r nano-\$1-vol;
#X obj 439 337 r \$1-vol;
#N canvas 593 250 450 300 credits 1;
#X text 17 87 License: CC BY;
#X text 17 50 (C) LATM - Laboratory of Audio and Music Technologies
- USP 2013-2021;
#X text 18 123 History:;
#X text 18 20 REACTIVE - Sound processors library for reactive musical
applications;
#X text 509 624 LATM-DM-FFCLRP-USP(c)2017 Reactive. Funew v.8.5 (10/05/17)
;
#X text 83 206 Funew v.8.1 (06/11/2013);
#X text 83 186 Funew v.8.2 (19/10/2013);
#X text 83 161 Funew v.8.3 (27/08/2014);
#X text 83 141 Funew v.8.4 (24/05/2016);
#X text 83 122 Funew v.8.5 (10/05/2017);
#X restore 840 505 pd credits;
#X text 758 530 REACTIVE (C) LATM - 2021;
#X connect 0 0 21 0;
#X connect 0 0 41 0;
#X connect 0 0 52 0;
#X connect 0 0 47 0;
#X connect 0 0 48 0;
#X connect 0 0 49 0;
#X connect 3 0 6 0;
#X connect 4 0 11 0;
#X connect 5 0 13 0;
#X connect 6 0 9 0;
#X connect 7 0 10 0;
#X connect 9 0 7 1;
#X connect 9 0 86 0;
#X connect 10 0 21 1;
#X connect 10 0 52 1;
#X connect 10 0 55 0;
#X connect 11 0 55 1;
#X connect 12 0 52 2;
#X connect 12 0 21 2;
#X connect 12 0 56 0;
#X connect 13 0 56 1;
#X connect 14 0 18 0;
#X connect 14 1 20 0;
#X connect 14 2 1 0;
#X connect 15 0 14 2;
#X connect 15 0 18 0;
#X connect 16 0 14 0;
#X connect 16 0 14 3;
#X connect 17 0 14 1;
#X connect 18 0 14 4;
#X connect 19 0 16 0;
#X connect 21 0 14 5;
#X connect 22 0 52 3;
#X connect 22 1 21 3;
#X connect 22 2 41 3;
#X connect 22 3 47 3;
#X connect 22 4 48 3;
#X connect 22 5 49 3;
#X connect 23 0 42 0;
#X connect 26 0 57 0;
#X connect 26 0 27 0;
#X connect 26 0 81 0;
#X connect 26 0 80 0;
#X connect 26 0 34 0;
#X connect 27 0 79 3;
#X connect 29 0 92 0;
#X connect 29 0 93 0;
#X connect 29 0 63 0;
#X connect 29 0 84 0;
#X connect 29 0 85 0;
#X connect 30 0 25 0;
#X connect 34 0 9 0;
#X connect 36 0 7 0;
#X connect 36 0 86 1;
#X connect 38 0 36 0;
#X connect 41 0 14 5;
#X connect 42 0 22 0;
#X connect 47 0 14 5;
#X connect 48 0 14 5;
#X connect 49 0 14 5;
#X connect 52 0 14 5;
#X connect 53 0 41 1;
#X connect 53 0 47 1;
#X connect 53 0 48 1;
#X connect 53 0 49 1;
#X connect 54 0 41 2;
#X connect 54 0 47 2;
#X connect 54 0 48 2;
#X connect 54 0 49 2;
#X connect 55 0 10 0;
#X connect 55 1 11 0;
#X connect 56 0 12 0;
#X connect 56 1 13 0;
#X connect 57 0 79 4;
#X connect 60 0 61 0;
#X connect 60 0 62 0;
#X connect 61 0 58 0;
#X connect 62 0 59 0;
#X connect 63 0 60 0;
#X connect 64 0 36 0;
#X connect 66 0 11 0;
#X connect 67 0 13 0;
#X connect 72 0 13 0;
#X connect 73 0 72 4;
#X connect 74 0 72 3;
#X connect 75 0 72 1;
#X connect 76 0 72 2;
#X connect 77 0 75 0;
#X connect 77 0 76 0;
#X connect 77 0 74 0;
#X connect 77 0 73 0;
#X connect 78 0 72 0;
#X connect 79 0 11 0;
#X connect 80 0 79 1;
#X connect 81 0 79 2;
#X connect 82 0 79 0;
#X connect 83 0 15 0;
#X connect 84 0 83 1;
#X connect 85 0 83 2;
#X connect 86 0 10 0;
#X connect 87 0 9 0;
#X connect 88 0 9 0;
#X connect 92 0 83 3;
#X connect 93 0 83 4;
#X connect 94 0 83 0;
#X connect 95 0 15 0;
#X coords 0 -1 1 1 200 252 2 200 170;
