#N canvas 288 88 1071 789 10;
#X obj 102 102 cnv 15 719 213 empty empty \$1 15 25 1 14 -116119 -262144
0;
#X obj 120 261 tgl 22 0 Rw-s \$0-Rw empty 17 7 0 10 -262144 -258113
-1 0 127;
#X obj 126 195 tgl 12 0 tr<-s 1010-tr< empty 17 7 0 10 -262144 -258113
-1 0 127;
#X obj 293 105 cnv 15 60 205 empty empty empty 20 12 0 14 -162280 -66577
0;
#X obj 312 120 knob 24 24 0 127 0 0 Pe1-s \$0-Pe1 empty 0 -8 0 8 -203904
-258113 -1 0 1;
#X obj 300 178 tgl 17 0 \$0-Bt1-1-s \$0-Bt1-1 empty 17 7 0 10 -262144
-258113 -1 0 127;
#X obj 331 178 vsl 15 80 0 127 0 0 Sl1-s \$0-Sl1 empty 0 -9 0 10 -261234
-1 -1 0 1;
#X obj 216 261 tgl 22 0 Pl-s \$0-Pl empty 17 7 0 10 -262144 -258113
-1 0 127;
#X obj 184 261 tgl 22 0 St-s \$0-St empty 17 7 0 10 -262144 -258113
-1 0 127;
#X obj 152 261 tgl 22 0 Fw-s \$0- empty 17 7 0 10 -262144 -258113 -1
0 127;
#X obj 248 261 tgl 22 0 Re-s \$0-Re empty 17 7 0 10 -262144 -258113
-1 0 127;
#X text 302 142 1;
#X obj 359 105 cnv 15 60 205 empty empty empty 20 12 0 14 -162280 -66577
0;
#X obj 378 120 knob 24 24 0 127 0 0 Pe2-s \$0-Pe2 empty 0 -8 0 8 -262144
-258113 -1 0 1;
#X obj 425 105 cnv 15 60 205 empty empty empty 20 12 0 14 -162280 -66577
0;
#X obj 444 120 knob 24 24 0 127 0 0 Pe3-s \$0-Pe3 empty 0 -8 0 8 -258113
-258113 -1 0 1;
#X obj 491 105 cnv 15 60 205 empty empty empty 20 12 0 14 -162280 -66577
0;
#X obj 510 120 knob 24 24 0 127 0 0 Pe4-s \$0-Pe4 empty 0 -8 0 8 -262144
-258113 -1 0 1;
#X obj 557 105 cnv 15 60 205 empty empty empty 20 12 0 14 -162280 -66577
0;
#X obj 577 120 knob 24 24 0 127 0 0 Pe5-s \$0-Pe5 empty 0 -8 0 8 -258113
-258113 -1 0 1;
#X obj 623 105 cnv 15 60 205 empty empty empty 20 12 0 14 -162280 -66577
0;
#X obj 642 120 knob 24 24 0 127 0 0 Pe6-s \$0-Pe6 empty 0 -8 0 8 -262144
-258113 -1 0 1;
#X obj 689 105 cnv 15 60 205 empty empty empty 20 12 0 14 -162280 -66577
0;
#X obj 708 120 knob 24 24 0 127 0 0 Pe7-s \$0-Pe7 empty 0 -8 0 8 -258113
-258113 -1 0 1;
#X obj 755 105 cnv 15 60 205 empty empty empty 20 12 0 14 -162280 -66577
0;
#X obj 774 120 knob 24 24 0 127 0 0 Pe8-s \$0-Pe8 empty 0 -8 0 8 -258113
-258113 -1 0 1;
#X text 368 142 2;
#X text 434 142 3;
#X text 500 142 4;
#X text 567 142 5;
#X text 632 142 6;
#X text 698 142 7;
#X text 764 142 8;
#X text 123 244 Rw;
#X text 220 244 Pl;
#X text 155 244 Fw;
#X text 188 243 St;
#X text 251 244 Re;
#X obj 398 178 vsl 15 80 0 127 0 0 Sl2-s \$0-Sl2 empty 0 -9 0 10 -261234
-1 -1 0 1;
#X obj 464 178 vsl 15 80 0 127 0 0 Sl3-s \$0-Sl3 empty 0 -9 0 10 -261234
-1 -1 0 1;
#X obj 530 178 vsl 15 80 0 127 0 0 Sl4-s \$0-Sl4 empty 0 -9 0 10 -261234
-1 -1 0 1;
#X obj 596 178 vsl 15 80 0 127 0 0 Sl5-s \$0-Sl5 empty 0 -9 0 10 -261234
-1 -1 0 1;
#X obj 662 178 vsl 15 80 0 127 0 0 Sl6-s \$0-Sl6 empty 0 -9 0 10 -261234
-1 -1 0 1;
#X obj 728 178 vsl 15 80 0 127 0 0 Sl7-s \$0-Sl7 empty 0 -9 0 10 -261234
-1 -1 0 1;
#X obj 794 178 vsl 15 80 0 127 0 0 Sl8-s \$0-Sl8 empty 0 -9 0 10 -261234
-1 -1 0 1;
#X obj 300 241 tgl 17 0 Bt3-1-s \$0-Bt3-1 empty 17 7 0 10 -262144 -258113
-1 0 127;
#N canvas 1152 169 864 627 ent-midi 0;
#X floatatom 2 44 5 0 0 0 - - -;
#X obj 2 70 s \$0-Rw;
#X floatatom 191 44 5 0 0 0 - - -;
#X obj 191 70 s \$0-Pl;
#X floatatom 63 44 5 0 0 0 - - -;
#X floatatom 313 44 5 0 0 0 - - -;
#X floatatom 130 44 5 0 0 0 - - -;
#X floatatom 252 44 5 0 0 0 - - -;
#X obj 63 70 s \$0- Fw;
#X obj 130 70 s \$0-St;
#X obj 252 70 s \$0-Re;
#X floatatom 2 141 5 0 0 0 - - -;
#X floatatom 71 141 5 0 0 0 - - -;
#X floatatom 140 141 5 0 0 0 - - -;
#X floatatom 210 141 5 0 0 0 - - -;
#X floatatom 279 141 5 0 0 0 - - -;
#X floatatom 347 141 5 0 0 0 - - -;
#X text 7 0 Transporte;
#X obj 2 167 s \$0-Pe1;
#X obj 71 167 s \$0-Pe2;
#X obj 140 167 s \$0-Pe3;
#X obj 210 167 s \$0-Pe4;
#X obj 279 167 s \$0-Pe5;
#X obj 347 167 s \$0-Pe6;
#X floatatom 416 141 5 0 0 0 - - -;
#X floatatom 485 141 5 0 0 0 - - -;
#X obj 416 167 s \$0-Pe7;
#X obj 485 167 s \$0-Pe8;
#X floatatom 2 238 5 0 0 0 - - -;
#X floatatom 70 238 5 0 0 0 - - -;
#X floatatom 138 238 5 0 0 0 - - -;
#X floatatom 206 238 5 0 0 0 - - -;
#X floatatom 274 238 5 0 0 0 - - -;
#X floatatom 342 238 5 0 0 0 - - -;
#X floatatom 410 238 5 0 0 0 - - -;
#X floatatom 478 238 5 0 0 0 - - -;
#X text 11 193 Sliders;
#X obj 2 264 s \$0-Sl1;
#X obj 70 264 s \$0-Sl2;
#X obj 138 264 s \$0-Sl3;
#X obj 206 264 s \$0-Sl4;
#X obj 342 264 s \$0-Sl6;
#X obj 410 264 s \$0-Sl7;
#X obj 478 264 s \$0-Sl8;
#X floatatom 2 336 5 0 0 0 - - -;
#X floatatom 70 336 5 0 0 0 - - -;
#X floatatom 150 336 5 0 0 0 - - -;
#X floatatom 230 336 5 0 0 0 - - -;
#X floatatom 310 336 5 0 0 0 - - -;
#X floatatom 390 336 5 0 0 0 - - -;
#X floatatom 470 336 5 0 0 0 - - -;
#X floatatom 550 336 5 0 0 0 - - -;
#X text 11 291 Botones-1;
#X obj 781 16 ctlin;
#X floatatom 794 44 5 0 0 0 - - -;
#X floatatom 781 65 5 0 0 0 - - -;
#X obj 70 362 s 1018-Bt1-2;
#X obj 150 362 s \$0-Bt1-3;
#X obj 230 362 s \$0-Bt1-4;
#X obj 310 362 s \$0-Bt1-5;
#X obj 390 362 s \$0-Bt1-6;
#X obj 470 362 s \$0-Bt1-7;
#X obj 550 362 s \$0-Bt1-8;
#X floatatom 82 466 5 0 0 0 - - -;
#X floatatom 162 466 5 0 0 0 - - -;
#X floatatom 242 466 5 0 0 0 - - -;
#X floatatom 322 466 5 0 0 0 - - -;
#X floatatom 402 466 5 0 0 0 - - -;
#X floatatom 482 466 5 0 0 0 - - -;
#X floatatom 562 466 5 0 0 0 - - -;
#X text 11 421 Botones-2;
#X floatatom 2 466 5 0 0 0 - - -;
#X obj 2 492 s \$0-Bt2-1;
#X obj 82 492 s \$0-Bt2-2;
#X obj 162 492 s \$0-Bt2-3;
#X obj 242 492 s \$0-Bt2-4;
#X obj 322 492 s \$0-Bt2-5;
#X obj 402 492 s \$0-Bt2-6;
#X obj 482 492 s \$0-Bt2-7;
#X obj 562 492 s \$0-Bt2-8;
#X obj 274 264 s \$0-Sl5;
#X obj 2 115 ctlin 16;
#X obj 71 115 ctlin 17;
#X obj 140 115 ctlin 18;
#X obj 210 115 ctlin 19;
#X obj 279 115 ctlin 20;
#X obj 347 115 ctlin 21;
#X obj 416 115 ctlin 22;
#X obj 485 115 ctlin 23;
#X text 11 96 Knobs;
#X obj 2 212 ctlin 0;
#X obj 70 212 ctlin 1;
#X obj 138 212 ctlin 2;
#X obj 206 212 ctlin 3;
#X obj 274 212 ctlin 4;
#X obj 342 212 ctlin 5;
#X obj 410 212 ctlin 6;
#X obj 478 212 ctlin 7;
#X obj 63 18 ctlin 44;
#X obj 2 18 ctlin 43;
#X obj 130 18 ctlin 42;
#X obj 191 18 ctlin 41;
#X obj 252 18 ctlin 45;
#X obj 313 70 s 1010-tr<;
#X obj 313 18 ctlin 58;
#X floatatom 380 44 5 0 0 0 - - -;
#X obj 380 70 s 1010-tr>;
#X obj 380 18 ctlin 59;
#X floatatom 82 561 5 0 0 0 - - -;
#X floatatom 162 561 5 0 0 0 - - -;
#X floatatom 242 561 5 0 0 0 - - -;
#X floatatom 322 561 5 0 0 0 - - -;
#X floatatom 402 561 5 0 0 0 - - -;
#X floatatom 482 561 5 0 0 0 - - -;
#X floatatom 562 561 5 0 0 0 - - -;
#X text 11 516 Botones-2;
#X floatatom 2 561 5 0 0 0 - - -;
#X floatatom 447 44 5 0 0 0 - - -;
#X obj 447 70 s \$0-cyc;
#X obj 447 18 ctlin 46;
#X floatatom 514 44 5 0 0 0 - - -;
#X obj 514 70 s \$0-marset;
#X obj 514 18 ctlin 60;
#X floatatom 599 44 5 0 0 0 - - -;
#X obj 599 70 s \$0-mar<;
#X obj 599 18 ctlin 61;
#X floatatom 672 44 5 0 0 0 - - -;
#X obj 672 18 ctlin 62;
#X obj 672 70 s \$0-mar>;
#X obj 2 310 ctlin 32;
#X obj 2 587 s \$0-Bt3-1;
#X obj 82 587 s \$0-Bt3-2;
#X obj 162 587 s \$0-Bt3-3;
#X obj 242 587 s \$0-Bt3-4;
#X obj 322 587 s \$0-Bt3-5;
#X obj 402 587 s \$0-Bt3-6;
#X obj 482 587 s \$0-Bt3-7;
#X obj 562 587 s \$0-Bt3-8;
#X obj 70 310 ctlin 33;
#X obj 150 310 ctlin 34;
#X obj 230 310 ctlin 35;
#X obj 310 310 ctlin 36;
#X obj 390 310 ctlin 37;
#X obj 470 310 ctlin 38;
#X obj 550 310 ctlin 39;
#X obj 2 440 ctlin 48;
#X obj 81 440 ctlin 49;
#X obj 162 440 ctlin 50;
#X obj 242 440 ctlin 51;
#X obj 322 440 ctlin 52;
#X obj 402 440 ctlin 53;
#X obj 482 440 ctlin 54;
#X obj 562 440 ctlin 55;
#X obj 2 535 ctlin 64;
#X obj 81 535 ctlin 65;
#X obj 162 535 ctlin 66;
#X obj 242 535 ctlin 67;
#X obj 322 535 ctlin 68;
#X obj 402 535 ctlin 69;
#X obj 482 535 ctlin 70;
#X obj 562 535 ctlin 71;
#X obj 2 362 s \$0-Bt1-1;
#X connect 0 0 1 0;
#X connect 2 0 3 0;
#X connect 4 0 8 0;
#X connect 5 0 103 0;
#X connect 6 0 9 0;
#X connect 7 0 10 0;
#X connect 11 0 18 0;
#X connect 12 0 19 0;
#X connect 13 0 20 0;
#X connect 14 0 21 0;
#X connect 15 0 22 0;
#X connect 16 0 23 0;
#X connect 24 0 26 0;
#X connect 25 0 27 0;
#X connect 28 0 37 0;
#X connect 29 0 38 0;
#X connect 30 0 39 0;
#X connect 31 0 40 0;
#X connect 32 0 80 0;
#X connect 33 0 41 0;
#X connect 34 0 42 0;
#X connect 35 0 43 0;
#X connect 44 0 161 0;
#X connect 45 0 56 0;
#X connect 46 0 57 0;
#X connect 47 0 58 0;
#X connect 48 0 59 0;
#X connect 49 0 60 0;
#X connect 50 0 61 0;
#X connect 51 0 62 0;
#X connect 53 0 55 0;
#X connect 53 1 54 0;
#X connect 63 0 73 0;
#X connect 64 0 74 0;
#X connect 65 0 75 0;
#X connect 66 0 76 0;
#X connect 67 0 77 0;
#X connect 68 0 78 0;
#X connect 69 0 79 0;
#X connect 71 0 72 0;
#X connect 81 0 11 0;
#X connect 82 0 12 0;
#X connect 83 0 13 0;
#X connect 84 0 14 0;
#X connect 85 0 15 0;
#X connect 86 0 16 0;
#X connect 87 0 24 0;
#X connect 88 0 25 0;
#X connect 90 0 28 0;
#X connect 91 0 29 0;
#X connect 92 0 30 0;
#X connect 93 0 31 0;
#X connect 94 0 32 0;
#X connect 95 0 33 0;
#X connect 96 0 34 0;
#X connect 97 0 35 0;
#X connect 98 0 4 0;
#X connect 99 0 0 0;
#X connect 100 0 6 0;
#X connect 101 0 2 0;
#X connect 102 0 7 0;
#X connect 104 0 5 0;
#X connect 105 0 106 0;
#X connect 107 0 105 0;
#X connect 108 0 131 0;
#X connect 109 0 132 0;
#X connect 110 0 133 0;
#X connect 111 0 134 0;
#X connect 112 0 135 0;
#X connect 113 0 136 0;
#X connect 114 0 137 0;
#X connect 116 0 130 0;
#X connect 117 0 118 0;
#X connect 119 0 117 0;
#X connect 120 0 121 0;
#X connect 122 0 120 0;
#X connect 123 0 124 0;
#X connect 125 0 123 0;
#X connect 126 0 128 0;
#X connect 127 0 126 0;
#X connect 129 0 44 0;
#X connect 138 0 45 0;
#X connect 139 0 46 0;
#X connect 140 0 47 0;
#X connect 141 0 48 0;
#X connect 142 0 49 0;
#X connect 143 0 50 0;
#X connect 144 0 51 0;
#X connect 145 0 71 0;
#X connect 146 0 63 0;
#X connect 147 0 64 0;
#X connect 148 0 65 0;
#X connect 149 0 66 0;
#X connect 150 0 67 0;
#X connect 151 0 68 0;
#X connect 152 0 69 0;
#X connect 153 0 116 0;
#X connect 154 0 108 0;
#X connect 155 0 109 0;
#X connect 156 0 110 0;
#X connect 157 0 111 0;
#X connect 158 0 112 0;
#X connect 159 0 113 0;
#X connect 160 0 114 0;
#X restore 100 336 pd ent-midi;
#X obj 300 210 tgl 17 0 Bt2-1-s \$0-Bt2-1 empty 17 7 0 10 -262144 -258113
-1 0 127;
#X text 127 167 track;
#X obj 150 195 tgl 12 0 tr>-s 1010-tr> empty 17 7 0 10 -262144 -258113
-1 0 127;
#X text 127 180 <;
#X text 152 180 >;
#X obj 127 227 tgl 12 0 cyc-s \$0-cyc empty 17 7 0 10 -262144 -258113
-1 0 127;
#X text 117 211 cycle;
#X obj 223 227 tgl 12 0 mar<-s \$0-mar< empty 17 7 0 10 -262144 -258113
-1 0 127;
#X obj 247 227 tgl 12 0 mar>-s \$0-mar> empty 17 7 0 10 -262144 -258113
-1 0 127;
#X text 224 212 <;
#X text 249 212 >;
#X obj 199 227 tgl 12 0 marset-s \$0-marset empty 17 7 0 10 -262144
-258113 -1 0 127;
#X text 194 211 set;
#X text 192 200 ---marker---;
#X text 304 163 S;
#X text 304 195 M;
#X text 305 226 R;
#X obj 365 178 tgl 17 0 1018-Bt1-2-s 1018-Bt1-2 empty 17 7 0 10 -262144
-258113 -1 0 127;
#X obj 365 241 tgl 17 0 Bt3-2-s \$0-Bt3-2 empty 17 7 0 10 -262144 -258113
-1 0 127;
#X obj 365 210 tgl 17 0 Bt2-2-s \$0-Bt2-2 empty 17 7 0 10 -262144 -258113
-1 0 127;
#X text 369 163 S;
#X text 369 195 M;
#X text 370 226 R;
#X obj 431 178 tgl 17 0 Bt1-3-s \$0-Bt1-3 empty 17 7 0 10 -262144 -258113
-1 0 127;
#X obj 431 241 tgl 17 0 Bt3-3-s \$0-Bt3-3 empty 17 7 0 10 -262144 -258113
-1 0 127;
#X obj 431 210 tgl 17 0 Bt2-3-s \$0-Bt2-3 empty 17 7 0 10 -262144 -258113
-1 0 127;
#X text 435 163 S;
#X text 435 195 M;
#X text 436 226 R;
#X obj 497 178 tgl 17 0 Bt1-4-s \$0-Bt1-4 empty 17 7 0 10 -262144 -258113
-1 0 127;
#X obj 497 241 tgl 17 0 Bt3-4-s \$0-Bt3-4 empty 17 7 0 10 -262144 -258113
-1 0 127;
#X obj 497 210 tgl 17 0 Bt2-4-s \$0-Bt2-4 empty 17 7 0 10 -262144 -258113
-1 0 1;
#X text 501 163 S;
#X text 501 195 M;
#X text 502 226 R;
#X obj 563 178 tgl 17 0 Bt1-5-s \$0-Bt1-5 empty 17 7 0 10 -262144 -258113
-1 0 127;
#X obj 563 241 tgl 17 0 Bt3-5-s \$0-Bt3-5 empty 17 7 0 10 -262144 -258113
-1 0 127;
#X obj 563 210 tgl 17 0 Bt2-5-s \$0-Bt2-5 empty 17 7 0 10 -262144 -258113
-1 0 127;
#X text 567 163 S;
#X text 567 195 M;
#X text 568 226 R;
#X obj 629 178 tgl 17 0 Bt1-6-s \$0-Bt1-6 empty 17 7 0 10 -262144 -258113
-1 0 127;
#X obj 629 241 tgl 17 0 Bt3-6-s \$0-Bt3-6 empty 17 7 0 10 -262144 -258113
-1 0 127;
#X obj 629 210 tgl 17 0 Bt2-6-s \$0-Bt2-6 empty 17 7 0 10 -262144 -258113
-1 0 127;
#X text 633 163 S;
#X text 633 195 M;
#X text 634 226 R;
#X obj 695 178 tgl 17 0 Bt1-7-s \$0-Bt1-7 empty 17 7 0 10 -262144 -258113
-1 0 127;
#X obj 695 241 tgl 17 0 Bt3-7-s \$0-Bt3-7 empty 17 7 0 10 -262144 -258113
-1 0 127;
#X obj 695 210 tgl 17 0 Bt2-7-s \$0-Bt2-7 empty 17 7 0 10 -262144 -258113
-1 0 127;
#X text 699 163 S;
#X text 699 195 M;
#X text 700 226 R;
#X obj 761 178 tgl 17 0 Bt1-8-s \$0-Bt1-8 empty 17 7 0 10 -262144 -258113
-1 0 127;
#X obj 761 241 tgl 17 0 Bt3-8-s \$0-Bt3-8 empty 17 7 0 10 -262144 -258113
-1 0 127;
#X obj 761 210 tgl 17 0 Bt2-8-s \$0-Bt2-8 empty 17 7 0 10 -262144 -258113
-1 0 127;
#X text 765 163 S;
#X text 765 195 M;
#X text 766 226 R;
#X obj 888 117 cnv 15 100 60 empty empty empty 20 12 0 14 -233017 -66577
0;
#X symbolatom 364 266 8 0 0 0 - - -;
#X symbolatom 430 266 8 0 0 0 - - -;
#X symbolatom 496 266 8 0 0 0 - - -;
#X symbolatom 562 266 8 0 0 0 - - -;
#X symbolatom 628 266 8 0 0 0 - - -;
#X symbolatom 694 266 8 0 0 0 - - -;
#X symbolatom 760 266 8 0 0 0 - - -;
#X symbolatom 297 266 8 0 0 0 - - -;
#X obj 299 430 r Sl1-s;
#X obj 299 502 send;
#X symbolatom 364 287 8 0 0 0 - - -;
#X symbolatom 430 287 8 0 0 0 - - -;
#X symbolatom 496 287 8 0 0 0 - - -;
#X symbolatom 562 287 8 0 0 0 - - -;
#X symbolatom 628 287 8 0 0 0 - - -;
#X symbolatom 694 287 8 0 0 0 - - -;
#X symbolatom 760 287 8 0 0 0 - - -;
#X symbolatom 297 287 8 0 0 0 - - -;
#X obj 299 328 r Pe1-s;
#X obj 366 502 send;
#X obj 366 402 send;
#X obj 431 502 send;
#X obj 431 402 send;
#X obj 498 503 send;
#X obj 498 401 send;
#X obj 563 502 send;
#X obj 563 400 send;
#X obj 630 502 send;
#X obj 630 400 send;
#X obj 695 502 send;
#X obj 695 400 send;
#X obj 762 502 send;
#X obj 762 400 send;
#X obj 366 328 r Pe2-s;
#X obj 366 430 r Sl2-s;
#X obj 431 328 r Pe3-s;
#X obj 431 430 r Sl3-s;
#X obj 498 328 r Pe4-s;
#X obj 498 429 r Sl4-s;
#X obj 563 328 r Pe5-s;
#X obj 563 428 r Sl5-s;
#X obj 630 328 r Pe6-s;
#X obj 630 428 r Sl6-s;
#X obj 695 328 r Pe7-s;
#X obj 695 428 r Sl7-s;
#X obj 762 328 r Pe8-s;
#X obj 762 428 r Sl8-s;
#X obj 268 37 inlet;
#X obj 315 66 route 1 2 3 4 5 6 7 8 9 10 11 12 13 14 15 16;
#X msg 315 38 2 lala;
#X obj 591 67 print Error: There are only 16 options;
#X obj 299 401 send;
#X msg 292 352 nano-\$1;
#X obj 292 376 symbol;
#X text -2 4 REACTIVE;
#N canvas 497 230 393 167 credits 0;
#X text 36 29 REACTIVE - Sound processors Pd software library for reactive
musical applications - 2013-2016;
#X text 36 114 License: CC BY;
#X text 35 66 Nanokontrol2 Controller;
#X text 35 89 LATM-DM-FFCLRP-USP - 2014-2016;
#X restore 967 751 pd credits;
#N canvas 1118 174 616 654 history 0;
#X text 18 17 A fazer:;
#X text 17 326 Feito:;
#X text 25 538 Version history:;
#X text 31 358 Alterado o funcionamento do Nanokontrol para enviar
para endereços acidionando "nano-"na frente.;
#X text 30 397 criar o endereçamento para todos os botões (;
#X obj 304 399 r \$0-Bt1-1-s;
#X obj 304 424 s \$1-S1;
#X text 37 103 No help o slider para Central f \, só vai até o número
126 \, 9 quando deveria ir até o 8000;
#X text 35 42 mudar no help o nome do endereçamento do nano "Usage:
nano";
#X text 40 567 v.5.1 (10/5/17) \, v.5 (06/12/2016) \, v.4.3 (13/10/14)
\, v.4.2 (26/03/13) \, v.4.1 (15/03/13);
#X connect 5 0 6 0;
#X restore 967 720 pd history;
#X msg 359 352 nano-\$1;
#X obj 359 376 symbol;
#X msg 424 351 nano-\$1;
#X obj 424 375 symbol;
#X msg 491 352 nano-\$1;
#X obj 491 376 symbol;
#X msg 556 351 nano-\$1;
#X obj 556 375 symbol;
#X msg 623 351 nano-\$1;
#X obj 623 375 symbol;
#X msg 688 351 nano-\$1;
#X obj 688 375 symbol;
#X msg 755 352 nano-\$1;
#X obj 755 376 symbol;
#X msg 292 452 nano-\$1;
#X obj 292 476 symbol;
#X msg 358 452 nano-\$1;
#X obj 358 476 symbol;
#X msg 424 452 nano-\$1;
#X obj 424 476 symbol;
#X msg 491 451 nano-\$1;
#X obj 491 475 symbol;
#X msg 556 450 nano-\$1;
#X obj 556 474 symbol;
#X msg 624 450 nano-\$1;
#X obj 624 474 symbol;
#X msg 688 450 nano-\$1;
#X obj 688 474 symbol;
#X msg 756 449 nano-\$1;
#X obj 756 473 symbol;
#X obj 891 38 symbol \$1;
#X obj 891 14 loadbang;
#X text 9 27 AUGMENTED-nanoKNTRL2;
#X text -3 51 Usage: nano51 <NAME>;
#X obj 290 554 r \$0-Bt1-1-s;
#X obj 290 579 s \$1-S1;
#X obj 370 554 r \$0-Bt1-2-s;
#X obj 450 554 r \$0-Bt1-3-s;
#X obj 530 554 r \$0-Bt1-4-s;
#X obj 610 554 r \$0-Bt1-5-s;
#X obj 690 554 r \$0-Bt1-6-s;
#X obj 770 554 r \$0-Bt1-7-s;
#X obj 850 554 r \$0-Bt1-8-s;
#X obj 370 579 s \$1-S2;
#X obj 450 579 s \$1-S3;
#X obj 530 579 s \$1-S4;
#X obj 610 579 s \$1-S5;
#X obj 690 581 s \$1-S6;
#X obj 770 581 s \$1-S7;
#X obj 850 581 s \$1-S8;
#X obj 289 616 r \$0-Bt2-1-s;
#X obj 369 616 r \$0-Bt2-2-s;
#X obj 449 616 r \$0-Bt2-3-s;
#X obj 529 616 r \$0-Bt2-4-s;
#X obj 609 616 r \$0-Bt2-5-s;
#X obj 689 616 r \$0-Bt2-6-s;
#X obj 769 616 r \$0-Bt2-7-s;
#X obj 849 616 r \$0-Bt2-8-s;
#X obj 287 676 r \$0-Bt3-1-s;
#X obj 367 676 r \$0-Bt3-2-s;
#X obj 447 676 r \$0-Bt3-3-s;
#X obj 527 676 r \$0-Bt3-4-s;
#X obj 607 676 r \$0-Bt3-5-s;
#X obj 687 676 r \$0-Bt3-6-s;
#X obj 767 676 r \$0-Bt3-7-s;
#X obj 847 676 r \$0-Bt3-8-s;
#X text 289 540 Buttons S;
#X text 288 602 Buttons M;
#X text 286 662 Buttons R;
#X obj 9 427 r \$0-tr<-1-s;
#X obj 89 427 r \$0-tr>-1-s;
#X text 7 412 Track;
#X obj 8 492 r \$0-cyc-1-s;
#X text 6 478 Cycle;
#X obj 289 643 s \$1-M1;
#X obj 369 643 s \$1-M2;
#X obj 450 643 s \$1-M3;
#X obj 529 643 s \$1-M4;
#X obj 609 643 s \$1-M5;
#X obj 689 643 s \$1-M6;
#X obj 769 643 s \$1-M7;
#X obj 849 643 s \$1-M8;
#X obj 287 703 s \$1-R1;
#X obj 367 703 s \$1-R2;
#X obj 447 703 s \$1-R3;
#X obj 527 703 s \$1-R4;
#X obj 607 703 s \$1-R5;
#X obj 687 703 s \$1-R6;
#X obj 767 703 s \$1-R7;
#X obj 847 703 s \$1-R8;
#X obj 9 454 s \$1-tr<;
#X obj 89 454 s \$1-tr>;
#X obj 8 519 s \$1-cyc;
#X obj 5 553 r \$0-marset-1-s;
#X obj 103 554 r \$0-mar<-1-s;
#X obj 189 554 r \$0-mar>-1-s;
#X obj 5 580 s \$1-marset;
#X obj 103 581 s \$1-mar<;
#X obj 189 581 s \$1-mar>;
#X text 4 539 -------------------marker-------------------;
#X obj 2 622 r \$0-Rw-1-s;
#X obj 2 649 s \$1-Rw;
#X obj 77 622 r \$0-Fw-1-s;
#X obj 77 649 s \$1-Fw;
#X obj 151 622 r \$0-St-1-s;
#X obj 151 649 s \$1-St;
#X obj 1 682 r \$0-Pl-1-s;
#X obj 1 709 s \$1-Pl;
#X obj 77 683 r \$0-Re-1-s;
#X obj 77 710 s \$1-Re;
#X text 297 316 Knobs;
#X text 298 417 Sliders;
#X text 48 68 Ex: nano Tristao;
#X text 117 295 augmented nanoKontrol;
#X connect 107 0 164 0;
#X connect 108 0 166 0;
#X connect 109 0 168 0;
#X connect 110 0 170 0;
#X connect 111 0 172 0;
#X connect 112 0 174 0;
#X connect 113 0 176 0;
#X connect 114 0 159 0;
#X connect 115 0 116 0;
#X connect 117 0 180 0;
#X connect 118 0 182 0;
#X connect 119 0 184 0;
#X connect 120 0 186 0;
#X connect 121 0 188 0;
#X connect 122 0 190 0;
#X connect 123 0 192 0;
#X connect 124 0 178 0;
#X connect 125 0 158 0;
#X connect 140 0 127 0;
#X connect 141 0 126 0;
#X connect 142 0 129 0;
#X connect 143 0 128 0;
#X connect 144 0 131 0;
#X connect 145 0 130 0;
#X connect 146 0 133 0;
#X connect 147 0 132 0;
#X connect 148 0 135 0;
#X connect 149 0 134 0;
#X connect 150 0 137 0;
#X connect 151 0 136 0;
#X connect 152 0 139 0;
#X connect 153 0 138 0;
#X connect 154 0 155 0;
#X connect 155 0 114 0;
#X connect 155 1 107 0;
#X connect 155 2 108 0;
#X connect 155 3 109 0;
#X connect 155 4 110 0;
#X connect 155 5 111 0;
#X connect 155 6 112 0;
#X connect 155 7 113 0;
#X connect 155 8 124 0;
#X connect 155 9 117 0;
#X connect 155 10 118 0;
#X connect 155 11 119 0;
#X connect 155 12 120 0;
#X connect 155 13 121 0;
#X connect 155 14 122 0;
#X connect 155 15 123 0;
#X connect 155 16 157 0;
#X connect 156 0 155 0;
#X connect 159 0 160 0;
#X connect 160 0 158 1;
#X connect 164 0 165 0;
#X connect 165 0 127 1;
#X connect 166 0 167 0;
#X connect 167 0 129 1;
#X connect 168 0 169 0;
#X connect 169 0 131 1;
#X connect 170 0 171 0;
#X connect 171 0 133 1;
#X connect 172 0 173 0;
#X connect 173 0 135 1;
#X connect 174 0 175 0;
#X connect 175 0 137 1;
#X connect 176 0 177 0;
#X connect 177 0 139 1;
#X connect 178 0 179 0;
#X connect 179 0 116 1;
#X connect 180 0 181 0;
#X connect 181 0 126 1;
#X connect 182 0 183 0;
#X connect 183 0 128 1;
#X connect 184 0 185 0;
#X connect 185 0 130 1;
#X connect 186 0 187 0;
#X connect 187 0 132 1;
#X connect 188 0 189 0;
#X connect 189 0 134 1;
#X connect 190 0 191 0;
#X connect 191 0 136 1;
#X connect 192 0 193 0;
#X connect 193 0 138 1;
#X connect 195 0 194 0;
#X connect 198 0 199 0;
#X connect 200 0 207 0;
#X connect 201 0 208 0;
#X connect 202 0 209 0;
#X connect 203 0 210 0;
#X connect 204 0 211 0;
#X connect 205 0 212 0;
#X connect 206 0 213 0;
#X connect 214 0 238 0;
#X connect 215 0 239 0;
#X connect 216 0 240 0;
#X connect 217 0 241 0;
#X connect 218 0 242 0;
#X connect 219 0 243 0;
#X connect 220 0 244 0;
#X connect 221 0 245 0;
#X connect 222 0 246 0;
#X connect 223 0 247 0;
#X connect 224 0 248 0;
#X connect 225 0 249 0;
#X connect 226 0 250 0;
#X connect 227 0 251 0;
#X connect 228 0 252 0;
#X connect 229 0 253 0;
#X connect 233 0 254 0;
#X connect 234 0 255 0;
#X connect 236 0 256 0;
#X connect 257 0 260 0;
#X connect 258 0 261 0;
#X connect 259 0 262 0;
#X connect 264 0 265 0;
#X connect 266 0 267 0;
#X connect 268 0 269 0;
#X connect 270 0 271 0;
#X connect 272 0 273 0;
#X coords 0 -1 1 1 723 217 1 100 100;
