#N canvas 75 333 1335 563 10;
#X obj 519 480 dac~ 1 2 3 4 5 6 7 8;
#X text 376 31 1;
#X text 403 31 2;
#X text 427 31 3;
#X text 454 31 4;
#X text 480 31 5;
#X text 504 30 6;
#X text 530 31 7;
#X text 558 31 8;
#X obj 165 283 inlet~;
#X obj 280 284 inlet~;
#X obj 409 283 inlet~;
#X obj 540 288 inlet~;
#X obj 672 286 inlet~;
#X obj 805 285 inlet~;
#X obj 938 285 inlet~;
#X obj 1071 288 inlet~;
#X obj 105 116 vradio 13 1 0 7 empty empty empty 0 -8 0 10 -262144
-1 -1 6;
#X floatatom 105 284 5 0 0 0 - - -;
#X text 704 85 1;
#X text 731 86 2;
#X text 755 86 3;
#X text 782 86 4;
#X text 808 86 5;
#X text 832 85 6;
#X text 858 86 7;
#X text 886 86 8;
#X text 704 135 1;
#X text 731 136 3;
#X text 755 135 2;
#X text 782 136 7;
#X text 808 136 8;
#X text 832 135 -;
#X text 858 136 -;
#X text 886 136 -;
#X text 858 163 -;
#X text 886 163 -;
#X text 704 162 5;
#X text 731 163 7;
#X text 755 162 1*;
#X text 782 163 8;
#X text 808 163 6;
#X text 832 162 3;
#X text 704 111 1;
#X text 858 112 -;
#X text 886 112 -;
#X text 701 17 ____________________________________________________
;
#X text 731 112 2;
#X text 755 111 3;
#X text 782 112 4;
#X text 808 112 7;
#X text 832 111 8;
#X text 121 128 "5.0" [LCRLsRs];
#X text 122 114 Stereo [LR];
#X text 121 141 "5.1" [LRCLfeLsRs];
#X text 217 116 Output select;
#X text 247 128 Patchbay;
#X obj 165 330 *~;
#X obj 280 149 tgl 15 0 empty empty empty 17 7 0 10 -260097 -1 -1 1
1;
#X obj 384 188 route 1 0;
#X msg 409 233 0 15;
#X msg 444 212 1 50;
#X obj 409 255 line 0;
#X obj 237 79 loadbang 0;
#X obj 280 331 *~;
#X obj 409 331 *~;
#X obj 540 331 *~;
#X obj 666 330 *~;
#X obj 805 331 *~;
#X obj 938 331 *~;
#X obj 1071 331 *~;
#X floatatom 201 179 4 0 1 0 - - -;
#X msg 363 234 \$1 15;
#X text 858 187 -;
#X text 704 186 1;
#X text 731 187 2;
#X text 755 186 8;
#X text 782 187 7;
#X text 808 187 -;
#X text 832 186 -;
#X text 915 111 Surround 5.1;
#N canvas 672 164 937 376 info 0;
#X obj 34 64 vradio 13 1 0 6 empty empty empty 0 -8 0 10 -262144 -1
-1 0;
#X text 31 15 PATCHABAY ROUTING - RIGS CHANNEL ORDER;
#X text 563 337 (*) With Left speaker (1) moved to back-center position
;
#X text 53 62 Stereo [L R];
#X text 52 76 "5.0" [L C R Ls Rs];
#X text 52 89 "5.1" [L R C Lfe Ls Rs];
#X text 52 102 "7.1" [L R C Lfe Ls Rs BLs BRs];
#X text 54 115 Hexagono (6.0) [Ls BLs L* BRs Rs C];
#X text 54 128 Quadra (4.0) [L R BRs BLs . . . Lfe];
#X text 350 143 1;
#X text 377 144 2;
#X text 401 144 3;
#X text 428 144 4;
#X text 454 144 5;
#X text 478 143 6;
#X text 504 144 7;
#X text 532 144 8;
#X text 350 193 1;
#X text 377 194 3;
#X text 401 193 2;
#X text 428 194 7;
#X text 454 194 8;
#X text 478 193 -;
#X text 504 194 -;
#X text 532 194 -;
#X text 504 220 -;
#X text 532 220 -;
#X text 350 219 5;
#X text 377 220 7;
#X text 401 219 1*;
#X text 428 220 8;
#X text 454 220 6;
#X text 478 219 3;
#X text 350 169 1;
#X text 504 170 -;
#X text 532 170 -;
#X text 336 71 ____________________________________________________
;
#X text 377 170 2;
#X text 401 169 3;
#X text 428 170 4;
#X text 454 170 7;
#X text 478 169 8;
#X text 504 244 -;
#X text 350 243 1;
#X text 377 244 2;
#X text 401 243 8;
#X text 428 244 7;
#X text 454 244 -;
#X text 478 243 -;
#X text 561 169 Surround 5.1;
#X text 561 219 Hexagono (sent. anti-horario começando caixa Ls);
#X text 532 244 4;
#X text 561 193 Surround "5.0";
#X text 561 243 Quadrafonico (sent. horario começando caixa L c/ LFE
em input 8);
#X text 337 63 Matriz de Conexões;
#X text 561 143 Surround 7.1 (mapeamento direto default);
#X text 349 109 1;
#X text 376 110 2;
#X text 400 110 3;
#X text 427 110 4;
#X text 453 110 5;
#X text 477 109 6;
#X text 503 110 7;
#X text 531 110 8;
#X text 336 120 ____________________________________________________
;
#X text 319 158 O;
#X text 319 169 u;
#X text 319 181 t;
#X text 319 193 p;
#X text 319 206 u;
#X text 319 230 s;
#X text 319 219 t;
#X text 335 171 |;
#X text 335 182 |;
#X text 335 194 |;
#X text 335 205 |;
#X text 335 218 |;
#X text 335 230 |;
#X text 335 242 |;
#X text 335 135 |;
#X text 335 147 |;
#X text 335 159 |;
#X text 427 92 Inputs;
#X text 37 240 Como ler:;
#X text 486 12 1;
#X text 513 12 2;
#X text 537 12 3;
#X text 564 12 4;
#X text 590 12 5;
#X text 614 11 6;
#X text 640 12 7;
#X text 668 12 8;
#X text 487 29 L;
#X text 514 29 R;
#X text 539 29 C;
#X text 565 29 LFE;
#X text 591 29 Ls;
#X text 615 28 Rs;
#X text 640 29 BLs;
#X text 669 29 BRs;
#X text 354 12 Canais de saída -->;
#X text 307 28 mapeados na caixa física -->;
#X text 194 309 I2->O2;
#X text 194 294 I3->O8;
#X text 37 258 Selecionado Quad (4.0):;
#X text 37 275 Input 1 goes to Output 1 (I1->O1);
#X text 245 292 I4->O7;
#X text 245 309 I8->O4;
#X text 504 274 -;
#X text 454 274 -;
#X text 478 273 -;
#X text 532 274 4;
#X text 561 273 Quadrafonico Audience Amb3rd (sent. horario começando
caixa L c/ LFE em input 8);
#X text 350 273 8;
#X text 377 274 7;
#X text 401 273 1;
#X text 428 274 2;
#X text 335 256 |;
#X text 335 268 |;
#X text 335 280 |;
#X restore 350 150 pd info;
#X obj 280 179 bng 15 250 50 0 empty empty empty 17 7 0 10 -262144
-1 -1;
#X msg 349 109 \; pd-info vis \$1;
#X obj 349 90 tgl 15 0 empty empty empty 17 7 0 10 -262144 -1 -1 0
1;
#X obj 204 198 hsl 90 8 0 1 0 0 empty empty empty -2 -8 0 10 -260097
-1 -1 2900 1;
#X text 123 167 Hexa (6.0);
#X text 123 180 Quad (4.0);
#X obj 201 229 antideadlock;
#X text 246 178 About;
#X obj 337 212 spigot;
#X obj 384 211 delay 10;
#X text 377 48 L;
#X text 404 48 R;
#X text 429 48 C;
#X text 455 48 LFE;
#X text 481 48 Ls;
#X text 505 47 Rs;
#X text 530 48 BLs;
#X text 559 48 BRs;
#X text 915 162 Hexagono (sent. anti-horario começando caixa Ls);
#X text 993 437 Stereo [L R];
#X text 992 451 "5.0" [L C R Ls Rs];
#X text 992 464 "5.1" [L R C Lfe Ls Rs];
#X text 992 477 "7.1" [L R C Lfe Ls Rs BLs BRs];
#X text 121 154 "7.1" (default);
#X text 994 490 Hexagonal (6.0) [Ls BLs L* BRs Rs C];
#X text 995 503 Quadraphonic (4.0) [L R BRs BLs];
#X text 886 187 4;
#X text 915 135 Surround "5.0";
#X text 915 186 Quadrafonico (sent. horario começando caixa L c/ LFE
em input 8);
#X text 128 99 2;
#X text 152 99 3;
#X text 181 99 4;
#X text 208 99 5;
#X text 237 99 6;
#X text 104 99 1;
#X text 262 99 7;
#X text 284 99 8;
#X obj 371 458 noise~;
#X obj 371 484 *~ 0.1;
#X obj 563 512 *~;
#X obj 443 479 tgl 15 0 empty empty empty 17 7 0 10 -262144 -1 -1 0
1;
#X text 702 9 Matriz de Conexões;
#X text 915 85 Surround 7.1 (mapeamento direto default);
#X text 17 9 Patchbay Help;
#X text 328 8 "7.1" [L R C Lfe Ls Rs BLs BRs];
#X text 120 9 Setup físico montado: 8 canais em;
#X text 23 84 Canais de;
#X text 24 98 entrada -->;
#X text 121 31 Canais de saída (O1 \, O2 \, O3 \, ... O8) -->;
#X text 158 48 estão mapeados na caixa física -->;
#X text 703 51 1;
#X text 730 52 2;
#X text 754 52 3;
#X text 781 52 4;
#X text 807 52 5;
#X text 831 51 6;
#X text 857 52 7;
#X text 885 52 8;
#X text 701 36 Input;
#X text 619 85 Outputs -->;
#X text 701 61 ____________________________________________________
;
#X text 992 415 Mapeamentos padrão:;
#X text 123 193 Audce (4.0);
#X obj 150 358 demux~ . . . . . . .;
#X obj 280 358 demux~ . . . . . . .;
#X obj 409 357 demux~ . . . . . . .;
#X obj 540 357 demux~ . . . . . . .;
#X obj 672 356 demux~ . . . . . . .;
#X obj 805 356 demux~ . . . . . . .;
#X obj 938 356 demux~ . . . . . . .;
#X obj 1071 356 demux~ . . . . . . .;
#X text 859 217 -;
#X text 809 217 -;
#X text 833 216 -;
#X text 887 217 4;
#X text 916 216 Quadrafonico Audience Amb3rd (sent. horario começando
caixa L c/ LFE em input 8);
#X text 705 216 8;
#X text 732 217 7;
#X text 756 216 1;
#X text 783 217 2;
#X connect 9 0 57 0;
#X connect 10 0 64 0;
#X connect 11 0 65 0;
#X connect 12 0 66 0;
#X connect 13 0 67 0;
#X connect 14 0 68 0;
#X connect 15 0 69 0;
#X connect 16 0 70 0;
#X connect 17 0 18 0;
#X connect 18 0 145 0;
#X connect 18 0 146 0;
#X connect 18 0 147 0;
#X connect 18 0 148 0;
#X connect 18 0 149 0;
#X connect 18 0 150 0;
#X connect 18 0 151 0;
#X connect 18 0 152 0;
#X connect 57 0 145 0;
#X connect 58 0 59 0;
#X connect 58 0 90 1;
#X connect 59 0 91 0;
#X connect 59 1 60 0;
#X connect 60 0 62 0;
#X connect 61 0 62 0;
#X connect 62 0 57 1;
#X connect 62 0 64 1;
#X connect 62 0 70 1;
#X connect 62 0 69 1;
#X connect 62 0 68 1;
#X connect 62 0 67 1;
#X connect 62 0 66 1;
#X connect 62 0 65 1;
#X connect 63 0 58 0;
#X connect 63 0 71 0;
#X connect 64 0 146 0;
#X connect 65 0 147 0;
#X connect 66 0 148 0;
#X connect 67 0 149 0;
#X connect 68 0 150 0;
#X connect 69 0 151 0;
#X connect 70 0 152 0;
#X connect 71 0 88 0;
#X connect 71 0 90 0;
#X connect 72 0 62 0;
#X connect 82 0 84 0;
#X connect 84 0 83 0;
#X connect 85 0 88 1;
#X connect 88 0 71 0;
#X connect 88 1 85 0;
#X connect 90 0 72 0;
#X connect 91 0 71 0;
#X connect 119 0 120 0;
#X connect 120 0 121 0;
#X connect 121 0 0 0;
#X connect 121 0 0 1;
#X connect 121 0 0 2;
#X connect 121 0 0 3;
#X connect 121 0 0 4;
#X connect 121 0 0 5;
#X connect 121 0 0 6;
#X connect 121 0 0 7;
#X connect 122 0 121 1;
#X connect 145 0 0 0;
#X connect 145 1 0 0;
#X connect 145 2 0 0;
#X connect 145 3 0 0;
#X connect 145 4 0 4;
#X connect 145 5 0 0;
#X connect 145 6 0 7;
#X connect 146 0 0 1;
#X connect 146 1 0 2;
#X connect 146 2 0 1;
#X connect 146 3 0 1;
#X connect 146 4 0 6;
#X connect 146 5 0 1;
#X connect 146 6 0 6;
#X connect 147 1 0 1;
#X connect 147 2 0 2;
#X connect 147 3 0 2;
#X connect 147 4 0 0;
#X connect 147 5 0 7;
#X connect 147 6 0 0;
#X connect 148 1 0 6;
#X connect 148 2 0 3;
#X connect 148 3 0 3;
#X connect 148 4 0 7;
#X connect 148 5 0 6;
#X connect 148 6 0 1;
#X connect 149 1 0 7;
#X connect 149 2 0 6;
#X connect 149 3 0 4;
#X connect 149 4 0 5;
#X connect 150 2 0 7;
#X connect 150 3 0 5;
#X connect 150 4 0 2;
#X connect 151 3 0 6;
#X connect 152 3 0 7;
#X connect 152 5 0 3;
#X coords 0 -1 1 1 200 115 2 100 100;
