#N canvas 1025 72 725 685 10;
#X obj 494 148 patchbay;
#N canvas 1049 282 450 300 credits 0;
#X text 17 87 License: CC BY;
#X text 17 50 (C) LATM - Laboratory of Audio and Music Technologies
- USP 2013-2021;
#X text 18 123 History:;
#X text 18 20 REACTIVE - Sound processors library for reactive musical
applications;
#X text 83 124 patchbay.pd v.0 21/jun/2016;
#X text 83 144 patchbay.pd v.1 14/nov/2017;
#X restore 623 615 pd credits;
#X text 540 641 REACTIVE (C) LATM - 2021;
#X text 14 8 REACTIVE;
#X text 85 273 - maximum output value;
#X text 85 256 - minimum output value;
#X text 19 223 -> Inlets: - minimum input value;
#X text 85 239 - maximum input value;
#X text 16 122 Modo de uso: faixa;
#X text 16 142 Argumentos: (none);
#X text 279 624 1;
#X text 306 624 2;
#X text 330 624 3;
#X text 357 624 4;
#X text 383 624 5;
#X text 407 623 6;
#X text 433 624 7;
#X text 461 624 8;
#X text 280 641 L;
#X text 307 641 R;
#X text 332 641 C;
#X text 358 641 LFE;
#X text 384 641 Ls;
#X text 408 640 Rs;
#X text 433 641 BLs;
#X text 462 641 BRs;
#X text 231 601 "7.1" [L R C Lfe Ls Rs BLs BRs];
#X text 23 602 Setup físico montado: 8 canais em;
#X text 24 624 Canais de saída (O1 \, O2 \, O3 \, ... O8) -->;
#X text 61 641 estão mapeados na caixa física -->;
#X text 113 413 1;
#X text 140 414 2;
#X text 164 414 3;
#X text 191 414 4;
#X text 217 414 5;
#X text 241 413 6;
#X text 267 414 7;
#X text 295 414 8;
#X text 113 463 1;
#X text 140 464 3;
#X text 164 463 2;
#X text 191 464 7;
#X text 217 464 8;
#X text 241 463 -;
#X text 267 464 -;
#X text 295 464 -;
#X text 267 491 -;
#X text 295 491 -;
#X text 113 490 5;
#X text 140 491 7;
#X text 164 490 1*;
#X text 191 491 8;
#X text 217 491 6;
#X text 241 490 3;
#X text 113 439 1;
#X text 267 440 -;
#X text 295 440 -;
#X text 110 345 ____________________________________________________
;
#X text 140 440 2;
#X text 164 439 3;
#X text 191 440 4;
#X text 217 440 7;
#X text 241 439 8;
#X text 267 515 -;
#X text 113 514 1;
#X text 140 515 2;
#X text 164 514 8;
#X text 191 515 7;
#X text 217 515 -;
#X text 241 514 -;
#X text 324 439 Surround 5.1;
#X text 324 490 Hexagono (sent. anti-horario começando caixa Ls);
#X text 295 515 4;
#X text 324 463 Surround "5.0";
#X text 324 514 Quadrafonico (sent. horario começando caixa L c/ LFE
em input 8);
#X text 111 337 Matriz de Conexões;
#X text 324 413 Surround 7.1 (mapeamento direto default);
#X text 112 379 1;
#X text 139 380 2;
#X text 163 380 3;
#X text 190 380 4;
#X text 216 380 5;
#X text 240 379 6;
#X text 266 380 7;
#X text 294 380 8;
#X text 110 364 Input;
#X text 28 413 Outputs -->;
#X text 110 389 ____________________________________________________
;
#X text 268 545 -;
#X text 218 545 -;
#X text 242 544 -;
#X text 296 545 4;
#X text 325 544 Quadrafonico Audience Amb3rd (sent. horario começando
caixa L c/ LFE em input 8);
#X text 114 544 8;
#X text 141 545 7;
#X text 165 544 1;
#X text 192 545 2;
#X text 412 133 Canais de;
#X text 413 147 entrada -->;
#X text 28 32 PATCHBAY - router for several multichannel formats outputs
;
