#N canvas 59 46 1105 672 10;
#X obj 201 201 cnv 15 298 228 empty empty \$1 3 8 0 12 -232576 -45076
0;
#X obj 203 411 nbx 5 14 0 99 0 0 empty empty empty 0 -8 0 10 -203904
-1 -1 0 256;
#X obj 385 411 nbx 5 14 -1e+37 1e+37 0 0 empty empty Output 2 -8 0
11 -203904 -1 -45076 0 256;
#X obj 208 282 hsl 95 12 10000 10 1 0 empty empty Speed -1 5 0 11 -159808
-262144 -33289 3133 1;
#X obj 296 410 nbx 5 14 0 99 0 0 empty empty empty 0 -8 0 10 -203904
-1 -1 99 256;
#X obj 210 586 outlet;
#X obj 299 396 hsl 70 10 0 99 0 0 empty empty Final_point -2 -7 1 10
-203904 -1 -45076 6900 1;
#X obj 206 396 hsl 70 10 0 99 0 0 empty empty Initial_point -2 -7 1
10 -203904 -1 -45076 0 1;
#X obj 381 511 counter;
#N canvas 254 270 672 331 (subpatch) 0;
#X array \$1-contador 100 float 0;
#X coords 0 100 99 -100 150 101 2 0 0;
#X restore 344 241 graph;
#X text 298 255 :;
#X text 234 265 min;
#X text 272 265 sec;
#X obj 508 224 cnv 15 50 10 empty empty empty 20 12 0 14 -232576 -66577
0;
#X obj 381 485 metro 500;
#X obj 206 225 tgl 20 0 empty empty Start/Stop 25 11 0 10 -159808 -262144
-45076 0 1;
#X obj 206 300 bng 15 250 50 0 empty empty Change_direction 20 8 0
11 -159808 -1 -45076;
#X floatatom 344 538 5 0 0 0 - - -;
#X msg 474 479 min \$1;
#X obj 206 318 bng 15 250 50 0 empty empty Reset_to_min 20 8 0 11 -159808
-1 -45076;
#X floatatom 432 447 5 0 0 0 - - -;
#X obj 206 336 bng 15 250 50 0 empty empty Reset_to_max 20 8 0 11 -159808
-1 -45076;
#X msg 296 473 set \$1;
#X obj 258 586 hsl 128 15 -100 100 0 0 empty empty empty -2 -8 0 10
-262144 -1 -1 0 1;
#X text 342 282 -------------------------;
#N canvas 1505 86 350 309 antideadlock 0;
#X obj 30 47 inlet;
#X obj 195 48 inlet;
#X obj 42 275 outlet;
#X text 89 275 to box number;
#X text 75 48 from box number;
#X obj 177 275 outlet;
#X text 224 275 to slider;
#X text 240 49 from slider;
#X obj 213 120 hradio 15 1 0 2 empty empty empty 0 -8 0 10 -262144
-1 -1 1;
#X floatatom 258 179 1 0 0 0 - - -;
#X obj 228 196 spigot;
#X floatatom 201 177 1 0 0 0 - - -;
#X obj 171 194 spigot;
#X floatatom 116 183 1 0 0 0 - - -;
#X obj 86 200 spigot;
#X floatatom 59 181 1 0 0 0 - - -;
#X obj 29 198 spigot;
#X obj 59 158 == 0;
#X obj 96 158 == 1;
#X obj 201 154 == 1;
#X obj 238 154 == 0;
#X msg 201 93 0;
#X msg 235 93 1;
#X connect 0 0 21 0;
#X connect 0 0 16 0;
#X connect 1 0 14 0;
#X connect 1 0 22 0;
#X connect 8 0 17 0;
#X connect 8 0 18 0;
#X connect 8 0 19 0;
#X connect 8 0 20 0;
#X connect 9 0 10 1;
#X connect 10 0 5 0;
#X connect 11 0 12 1;
#X connect 12 0 2 0;
#X connect 13 0 14 1;
#X connect 14 0 12 0;
#X connect 15 0 16 1;
#X connect 16 0 10 0;
#X connect 17 0 15 0;
#X connect 18 0 13 0;
#X connect 19 0 11 0;
#X connect 20 0 9 0;
#X connect 21 0 8 0;
#X connect 22 0 8 0;
#X restore 81 476 pd antideadlock;
#N canvas 89 80 350 309 antideadlock 0;
#X obj 30 47 inlet;
#X obj 195 48 inlet;
#X obj 42 275 outlet;
#X text 89 275 to box number;
#X text 75 48 from box number;
#X obj 177 275 outlet;
#X text 224 275 to slider;
#X text 240 49 from slider;
#X obj 213 120 hradio 15 1 0 2 empty empty empty 0 -8 0 10 -262144
-1 -1 0;
#X floatatom 258 179 1 0 0 0 - - -;
#X obj 228 196 spigot;
#X floatatom 201 177 1 0 0 0 - - -;
#X obj 171 194 spigot;
#X floatatom 116 183 1 0 0 0 - - -;
#X obj 86 200 spigot;
#X floatatom 59 181 1 0 0 0 - - -;
#X obj 29 198 spigot;
#X obj 59 158 == 0;
#X obj 96 158 == 1;
#X obj 201 154 == 1;
#X obj 238 154 == 0;
#X msg 201 93 0;
#X msg 235 93 1;
#X connect 0 0 21 0;
#X connect 0 0 16 0;
#X connect 1 0 14 0;
#X connect 1 0 22 0;
#X connect 8 0 17 0;
#X connect 8 0 18 0;
#X connect 8 0 19 0;
#X connect 8 0 20 0;
#X connect 9 0 10 1;
#X connect 10 0 5 0;
#X connect 11 0 12 1;
#X connect 12 0 2 0;
#X connect 13 0 14 1;
#X connect 14 0 12 0;
#X connect 15 0 16 1;
#X connect 16 0 10 0;
#X connect 17 0 15 0;
#X connect 18 0 13 0;
#X connect 19 0 11 0;
#X connect 20 0 9 0;
#X connect 21 0 8 0;
#X connect 22 0 8 0;
#X restore 80 433 pd antideadlock;
#X obj 206 355 bng 15 250 50 0 empty empty Reset_speed 20 8 0 11 -159808
-1 -45076;
#X obj 206 88 loadbang;
#X text 531 103 <-- velocidade varredura de pontos/seg;
#X obj 468 51 / 1000;
#X obj 468 76 t b b;
#X obj 498 102 /;
#X msg 468 102 1;
#X obj 307 282 nbx 3 12 0.1 100 1 0 empty empty empty 0 -8 0 10 -159808
-1 -1 1 256;
#X obj 347 345 hsl 145 8 0 99 0 0 empty empty empty -2 -8 0 8 -203904
-1 -1 0 1;
#X floatatom 498 123 7 0 0 0 - - -;
#X obj 498 166 fromsymbol;
#X floatatom 529 188 5 0 0 0 - - -;
#X obj 498 146 makefilename %.2g;
#X obj 386 378 nbx 5 14 -1e+37 1e+37 0 0 empty empty Input 2 -8 0 11
-203904 -1 -45076 0 256;
#X text 612 145 <-- ARREDONDADOR DE NÚMEROS PARA 1 CASA DECIMAL;
#X msg 206 115 99;
#X obj 854 236 symbol \$1;
#X text 385 203 Programmable_Curve;
#X obj 327 227 cnv 15 100 10 empty empty empty 20 12 0 14 -232576 -66577
0;
#X obj 248 564 tabread \$1-contador;
#X obj 477 361 bng 15 250 50 0 empty empty empty 17 7 0 10 -262144
-1 -1;
#X text 471 374 save;
#X obj 407 599 soundfiler;
#X msg 407 577 write -aiff ~/ \$1-contador;
#X obj 347 205 bng 15 250 50 0 empty empty empty 17 7 0 10 -262144
-1 -1;
#X text 341 217 open;
#X msg 594 577 read -resize \$1 \$1-contador;
#X obj 594 599 soundfiler;
#X symbolatom 854 258 10 0 0 0 - - -;
#X obj 925 214 bng 15 250 50 0 empty empty empty 17 7 0 10 -262144
-1 -1;
#X obj 881 307 pack s s;
#X obj 926 235 symbol -contador;
#X obj 925 186 loadbang;
#X symbolatom 907 414 18 0 0 0 - - -;
#X obj 857 284 symbol;
#X msg 739 183 -resize;
#X msg 697 208 read;
#X obj 697 235 pack s s s s;
#X obj 739 206 symbol;
#X obj 697 184 t b b;
#X msg 697 259 \$1 \$2 \$3 \$3;
#X obj 937 258 t b b b;
#X obj 302 117 r \$1-start;
#X obj 302 175 tgl 15 0 empty empty empty 17 7 0 10 -262144 -1 -1 0
1;
#X text 2 8 REACTIVE;
#X msg 881 332 symbol \$1\$2;
#X obj 725 467 prepend;
#X obj 725 440 openpanel;
#X obj 905 443 savepanel;
#X obj 905 466 prepend;
#X msg 527 633 \; lala-contador read /Users/regis/ihuh;
#X msg 266 633 \; lala-contador write /Users/regis/hhhtest;
#X msg 905 517 \; \$1 write \$2;
#X text 967 465 NAME-contador FILE;
#X obj 905 493 prepend list;
#X obj 725 494 prepend list;
#X msg 725 519 \; \$1 read \$2;
#X text 777 469 NAME-contador FILE;
#X text 555 68 2) Usuario deve escolher ponto Inicial e Final da excursao
que deseja fazer (ex: loop inicia no pto 15 e acaba no 65);
#N canvas 765 236 503 485 credits 0;
#X text 31 81 version history:;
#X text 47 277 initial release v.1 01/10/2013;
#X text 48 240 v.2.4 07/07/2015;
#X text 16 16 Reactive - progcurve (Programmable Curve);
#X text 332 461 LATM/FFCLRP-USP 2013-2016;
#X text 29 38 license: CC BY SA;
#X text 47 131 v.2.5 13/06/16 - made speed and stop addressable parameters
\; 07/06/2016 - more info to use \; loadbang 99 to object number and
not "final point" slider (which did not work) \; deleted version numbers
from the name of the object \; joined signature + credits + version
history into subpatch "pd credits" \; included license info \;;
#X text 50 328 to do:;
#X text 49 347 Parametros a endereçar:;
#X text 61 363 initial \; final \;;
#X restore 1022 638 pd credits;
#X text 439 218 progcurve;
#X text 463 412 v.2.5;
#X obj 654 397 +;
#X obj 625 372 * 60;
#X obj 625 397 +;
#X obj 642 420 f;
#X obj 642 442 * 1000;
#X text 312 265 ms;
#X obj 672 464 +;
#X obj 643 464 +;
#X obj 660 487 f;
#X text 608 418 segs;
#X text 625 487 msegs;
#X floatatom 468 25 5 0 0 0 - - -;
#N canvas 89 80 350 309 antideadlock 0;
#X obj 30 47 inlet;
#X obj 195 48 inlet;
#X obj 42 275 outlet;
#X text 89 275 to box number;
#X text 75 48 from box number;
#X obj 177 275 outlet;
#X text 224 275 to slider;
#X text 240 49 from slider;
#X obj 213 120 hradio 15 1 0 2 empty empty empty 0 -8 0 10 -262144
-1 -1 1;
#X floatatom 258 179 1 0 0 0 - - -;
#X obj 228 196 spigot;
#X floatatom 201 177 1 0 0 0 - - -;
#X obj 171 194 spigot;
#X floatatom 116 183 1 0 0 0 - - -;
#X obj 86 200 spigot;
#X floatatom 59 181 1 0 0 0 - - -;
#X obj 29 198 spigot;
#X obj 59 158 == 0;
#X obj 96 158 == 1;
#X obj 201 154 == 1;
#X obj 238 154 == 0;
#X msg 201 93 0;
#X msg 235 93 1;
#X connect 0 0 21 0;
#X connect 0 0 16 0;
#X connect 1 0 14 0;
#X connect 1 0 22 0;
#X connect 8 0 17 0;
#X connect 8 0 18 0;
#X connect 8 0 19 0;
#X connect 8 0 20 0;
#X connect 9 0 10 1;
#X connect 10 0 5 0;
#X connect 11 0 12 1;
#X connect 12 0 2 0;
#X connect 13 0 14 1;
#X connect 14 0 12 0;
#X connect 15 0 16 1;
#X connect 16 0 10 0;
#X connect 17 0 15 0;
#X connect 18 0 13 0;
#X connect 19 0 11 0;
#X connect 20 0 9 0;
#X connect 21 0 8 0;
#X connect 22 0 8 0;
#X restore 82 317 pd antideadlock;
#X obj 379 77 expr 1000/$f1;
#X floatatom 454 124 5 0 0 0 - - -;
#X floatatom 82 367 5 0 0 0 - - -;
#X obj 82 345 expr 1000/$f1;
#X floatatom 83 294 5 0 0 0 - - -;
#X obj 83 272 expr 1000/$f1;
#X floatatom 538 520 5 0 0 0 - - -;
#X msg 257 171 0;
#X floatatom 670 509 7 0 0 0 - - -;
#X obj 538 499 expr 100000/$f1;
#X obj 257 155 bng 10 250 50 0 empty empty reset 12 4 0 8 -262144 -1
-1;
#X text 202 255 Time;
#X msg 237 115 100;
#X text 263 114 seg;
#X text 555 25 1) Usuario deve saber que a curva tem 100 (0 a 99) pontos
de tempo e amplitude de -100 a +100 (ex: speed=1=1pt/seg \, T=1m40s=100seg)
;
#X obj 305 256 nbx 3 14 -1e+37 1e+37 0 0 empty empty empty 0 -8 0 10
-203904 -1 -1 0 256;
#X text 257 255 :;
#X obj 264 256 nbx 3 14 -1e+37 1e+37 0 0 empty empty empty 0 -8 0 10
-203904 -1 -1 100 256;
#X obj 231 256 nbx 2 14 -1e+37 1e+37 0 0 empty empty empty 0 -8 0 10
-203904 -1 -1 0 256;
#X text 267 23 speed=1pt/seg -> dá 1000 aqui ->;
#X text 13 106 start/stop (toggle) \; speed (pts/seg) \;;
#X text 1 30 Programmable curve (progcurve);
#X msg 372 139 0;
#X msg 302 140 1;
#X obj 372 117 r \$1-stop;
#X obj 538 266 r \$1-speed;
#X obj 538 291 clip 0.1 100;
#X text 1 140 Ranges:;
#X text 11 161 speed (0.1-100 pts/s);
#X text 12 178 amplitude (-100:+100);
#X text 12 197 default: 100seg=1curve=speed=1;
#X text 1 59 Use: progcurve NAME;
#X text 555 8 Usage tip:;
#X text 1 90 Addressable parameters:;
#X connect 1 0 18 0;
#X connect 1 0 26 0;
#X connect 3 0 107 0;
#X connect 3 0 20 0;
#X connect 4 0 8 4;
#X connect 4 0 22 0;
#X connect 4 0 25 0;
#X connect 6 0 25 1;
#X connect 7 0 26 1;
#X connect 8 0 17 0;
#X connect 14 0 8 0;
#X connect 15 0 14 0;
#X connect 16 0 8 1;
#X connect 17 0 35 0;
#X connect 17 0 40 0;
#X connect 17 0 46 0;
#X connect 18 0 8 0;
#X connect 19 0 8 2;
#X connect 20 0 14 1;
#X connect 21 0 6 0;
#X connect 22 0 8 0;
#X connect 25 0 4 0;
#X connect 25 1 6 0;
#X connect 26 0 1 0;
#X connect 26 1 7 0;
#X connect 27 0 112 0;
#X connect 28 0 114 0;
#X connect 28 0 42 0;
#X connect 30 0 32 1;
#X connect 30 0 31 0;
#X connect 31 0 33 0;
#X connect 32 0 36 0;
#X connect 33 0 32 0;
#X connect 34 0 105 0;
#X connect 36 0 39 0;
#X connect 37 0 38 0;
#X connect 39 0 37 0;
#X connect 42 0 4 0;
#X connect 43 0 55 0;
#X connect 46 0 5 0;
#X connect 46 0 2 0;
#X connect 46 0 23 0;
#X connect 47 0 75 0;
#X connect 50 0 49 0;
#X connect 51 0 74 0;
#X connect 53 0 54 0;
#X connect 55 0 61 1;
#X connect 56 0 58 0;
#X connect 57 0 72 0;
#X connect 58 0 57 1;
#X connect 58 0 68 0;
#X connect 59 0 43 0;
#X connect 59 0 56 0;
#X connect 61 0 57 0;
#X connect 62 0 65 0;
#X connect 63 0 64 0;
#X connect 64 0 67 0;
#X connect 65 0 64 1;
#X connect 66 0 63 0;
#X connect 68 0 61 0;
#X connect 69 0 125 0;
#X connect 70 0 15 0;
#X connect 72 0 60 0;
#X connect 72 0 73 1;
#X connect 72 0 76 1;
#X connect 73 0 82 0;
#X connect 74 0 73 0;
#X connect 75 0 76 0;
#X connect 76 0 81 0;
#X connect 81 0 79 0;
#X connect 82 0 83 0;
#X connect 89 0 92 0;
#X connect 90 0 89 0;
#X connect 90 0 91 1;
#X connect 91 0 92 0;
#X connect 92 0 93 0;
#X connect 93 0 96 0;
#X connect 93 0 95 0;
#X connect 95 0 97 0;
#X connect 96 0 97 0;
#X connect 97 0 110 0;
#X connect 97 0 111 0;
#X connect 100 0 30 0;
#X connect 100 0 102 0;
#X connect 101 0 34 0;
#X connect 101 1 3 0;
#X connect 102 0 103 0;
#X connect 103 0 34 0;
#X connect 104 0 101 0;
#X connect 105 0 104 0;
#X connect 106 0 101 1;
#X connect 107 0 106 0;
#X connect 108 0 34 0;
#X connect 109 0 117 0;
#X connect 109 0 120 0;
#X connect 111 0 108 0;
#X connect 112 0 109 0;
#X connect 112 0 114 0;
#X connect 114 0 119 0;
#X connect 117 0 95 1;
#X connect 117 0 96 1;
#X connect 119 0 89 1;
#X connect 119 0 91 0;
#X connect 120 0 90 0;
#X connect 124 0 70 0;
#X connect 125 0 70 0;
#X connect 126 0 124 0;
#X connect 127 0 128 0;
#X connect 128 0 108 0;
#X coords 0 -1 1 1 300 230 1 200 200;
