#N canvas 168 0 998 685 10;
#X text 39 155 -> Mixagem \;;
#X text 38 198 -> Cross-synthesis \;;
#X text 38 211 -> Fragmentação \;;
#X text 38 184 -> Morphing;
#X text 38 169 -> Convolução \;;
#N canvas 347 172 648 383 instrucoes_de_instalacao 1;
#X text 209 33 Procedimentos de instalação:;
#X text 97 62 - Após baixado o pacote \, faz-se necessário a análise
dos externals necessários para perfeito funcionamento do pacote tais
externals são:;
#X text 127 179 Se esses externals estiverem presentes \, aproveite
o reator \, caso não vá em solucao de problemas;
#X text 97 106 - Pacote Reactive 2.3(?) \, contendo principalmente
dois arquivos: sigmund~ e o bonk~ \; - iemlib v0.0 extended \; - deken-plugin
\; - cyclone \; - ggee external - carregamento de imagens;
#X restore 22 420 pd instrucoes_de_instalacao;
#N canvas 663 271 644 452 solucao_de_problemas 0;
#X text 238 58 Solução de problemas:;
#X text 156 95 Vá em ajuda e procurar por externals: - Procure por
iemlib \, baixe \, após vá em preferências \, caminho de busca e
adicione onde o arquivo foi baixado \; - Faça o mesmo para o external
cyclone e o pacote Reactive \; - Baixe o external deken-plugin da mesma
maneira \, porém adicione o mesmo em inicialização \; - Divirta-se
\;;
#X restore 22 445 pd solucao_de_problemas;
#X text 23 282 Modo de utilizar: - Selecione o som 1 no Load amarelo
e o som 2 no Load laranja \; - Coloque play e selecione a proporção
dos sons \; - Ative o áudio \, ajuste o volume \; - Divirta-se \;
Obs.: O som tem que estar no formato .wav;
#X text 9 74 Reator Musical: Este patch consiste em um reator musical.
O Reator Musical consiste na ideia de realizar reações com sons \,
ou seja \, assim como ocorre na química \, reações entre substãncias
\, teremos reações de sons \, dentre algumas possibilidades a seguir
\, que podem ser:;
#X obj 51 32 image reactivelogo.gif;
#X text 84 43 REACTIVE;
#X obj 167 537 patchbay;
#X obj 449 662 s~ S3;
#X obj 703 662 s~ S1;
#X obj 916 662 s~ S2;
#X obj 119 490 r~ S3;
#X obj 158 490 r~ S1;
#X obj 197 490 r~ S2;
#X obj 25 580 dac~ 1 2;
#X text 23 603 Saída dac~:;
#X text 28 623 canal 1 (L): produto;
#X text 29 638 canal 2 (R): resíduos;
#X obj 25 552 tgl 15 0 empty empty empty 17 7 0 10 -262144 -1 -1 0
1;
#X obj 49 552 *~;
#X obj 77 553 *~;
#X obj 449 12 reactor;
#N canvas 593 250 738 378 credits 0;
#X text 17 87 License: CC BY;
#X text 17 50 (C) LATM - Laboratory of Audio and Music Technologies
- USP 2013-2021;
#X text 18 123 History:;
#X text 18 20 REACTIVE - Sound processors library for reactive musical
applications;
#X text 82 167 Reator v.5.8 (02/09/2021) - patch atual;
#X text 140 129 V.5.x;
#X text 412 129 V.4.x;
#X text 627 129 Outras;
#X text 82 186 Reator v.5.7 (24/05/2021);
#X text 82 206 Reator v.5.6 (25/02/2021);
#X text 82 226 Reator v.5.5 (12/01/2021);
#X text 82 245 Reator v.5.4 (25/07/2019);
#X text 82 264 Reator v.5.3 (17/07/2019);
#X text 82 283 Reator v.5.2 (05/06/2019);
#X text 82 303 Reator v.5.1 (11/07/2019);
#X text 81 324 Reator v.5.0 (22/05/2019);
#X text 362 166 Reator v.4.4 (22/05/2019);
#X text 362 186 Reator v.4.3 (15/05/2019);
#X text 362 204 Reator v.4.2 (14/05/2019);
#X text 362 223 Reator v.4.1 (30/04/2019);
#X text 361 243 Reator v.4.0 (02/01/2019);
#X text 577 165 Reator v.3 (28/11/2018);
#X text 577 185 Reator v.2 (28/11/2018);
#X text 577 203 Reator v.1 (28/11/2018);
#X restore 888 693 pd credits;
#X text 802 721 REACTIVE (C) LATM - 2021;
#X connect 15 0 11 0;
#X connect 15 0 11 1;
#X connect 15 0 23 0;
#X connect 16 0 11 4;
#X connect 16 0 24 0;
#X connect 17 0 11 5;
#X connect 17 0 24 0;
#X connect 22 0 23 1;
#X connect 22 0 24 1;
#X connect 23 0 18 0;
#X connect 24 0 18 1;
#X connect 25 0 12 0;
#X connect 25 1 13 0;
#X connect 25 2 14 0;
