#N canvas -8 -8 1366 685 10;
#X text 39 155 -> Mixagem \;;
#X text 38 198 -> Cross-synthesis \;;
#X text 38 211 -> Fragmentação \;;
#X text 38 184 -> Morphing;
#X text 38 169 -> Convolução \;;
#N canvas 347 172 648 383 instrucoes_de_instalacao 0;
#X text 209 33 Procedimentos de instalação:;
#X text 97 62 - Após baixado o pacote \, faz-se necessário a análise
dos externals necessários para perfeito funcionamento do pacote tais
externals são:;
#X text 97 106 - Pacote Reactive 2.3(?) \, contendo principalmente
dois arquivos: sigmund~ e o bonk~ \; - iemlib v0.0 extended \; - deken-plugin
\; - cyclone \;;
#X text 127 179 Se esses externals estiverem presentes \, aproveite
o reator \, caso não vá em solucao de problemas;
#X restore 22 420 pd instrucoes_de_instalacao;
#N canvas 663 271 644 452 solucao_de_problemas 0;
#X text 238 58 Solução de problemas:;
#X text 156 95 Vá em ajuda e procurar por externals: - Procure por
iemlib \, baixe \, após vá em preferências \, caminho de busca e
adicione onde o arquivo foi baixado \; - Faça o mesmo para o external
cyclone e o pacote Reactive \; - Baixe o external deken-plugin da mesma
maneira \, porém adicione o mesmo em inicialização \; - Divirta-se
\;;
#X restore 22 445 pd solucao_de_problemas;
#X text 23 282 Modo de utilizar: - Selecione o som 1 no Load amarelo
e o som 2 no Load laranja \; - Coloque play e selecione a proporção
dos sons \; - Ative o áudio \, ajuste o volume \; - Divirta-se \;
Obs.: O som tem que estar no formato .wav;
#X text 898 686 eof;
#X text 9 74 Reator Musical: Este patch consiste em um reator musical.
O Reator Musical consiste na ideia de realizar reações com sons \,
ou seja \, assim como ocorre na química \, reações entre substãncias
\, teremos reações de sons \, dentre algumas possibilidades a seguir
\, que podem ser:;
#X obj 51 32 image reactivelogo.gif 0;
#X text 84 43 REACTIVE;
#X obj 167 537 patchbay;
#X obj 383 659 s~ S3;
#X obj 629 660 s~ S1;
#X obj 876 659 s~ S2;
#X obj 119 490 r~ S3;
#X obj 158 490 r~ S1;
#X obj 197 490 r~ S2;
#X obj 25 580 dac~ 1 2;
#X text 23 603 Saída dac~:;
#X text 28 623 canal 1 (L): produto;
#X text 29 638 canal 2 (R): resíduos;
#X obj 25 552 tgl 15 0 empty empty empty 17 7 0 10 -262144 -1 -1 0
1;
#X obj 49 552 *~;
#X obj 77 553 *~;
#X obj 383 11 reator-v5.7;
#X connect 16 0 12 0;
#X connect 16 0 12 1;
#X connect 16 0 24 0;
#X connect 17 0 12 4;
#X connect 17 0 25 0;
#X connect 18 0 12 5;
#X connect 18 0 25 0;
#X connect 23 0 24 1;
#X connect 23 0 25 1;
#X connect 24 0 19 0;
#X connect 25 0 19 1;
#X connect 26 0 13 0;
#X connect 26 1 14 0;
#X connect 26 2 15 0;
