#N canvas 334 104 746 533 10;
#X obj 156 104 hsl 80 15 0.001 3 1 0 empty empty empty -2 -8 0 10 -228856
-1 -1 0 1;
#X obj 131 66 inlet~;
#X obj 131 322 outlet~;
#X text 185 105 vol;
#X obj 219 124 bng 12 250 50 0 empty empty empty 17 7 0 10 -262144
-1 -1;
#X msg 320 67 1;
#X text 207 122 1;
#X obj 131 296 *~ 0;
#X obj 152 259 line;
#X obj 152 149 moses 0.0011;
#X msg 152 214 0;
#X obj 153 124 tgl 12 0 empty empty empty 17 7 0 10 -262144 -1 -1 0
1;
#X obj 63 180 f;
#X obj 24 129 moses 1;
#X obj 24 104 f;
#X obj 24 154 t b;
#X floatatom 215 296 5 0 0 0 - - -, f 5;
#X obj 221 214 spigot;
#X obj 63 154 delay 10;
#X text 166 121 on/off;
#X obj 152 236 pack 0 50;
#X obj 250 67 inlet;
#X obj 235 322 outlet;
#X obj 182 66 inlet~;
#X obj 182 322 outlet~;
#X obj 182 296 *~ 0;
#X connect 0 0 9 0;
#X connect 0 0 12 1;
#X connect 1 0 7 0;
#X connect 4 0 5 0;
#X connect 5 0 0 0;
#X connect 7 0 2 0;
#X connect 8 0 7 1;
#X connect 8 0 16 0;
#X connect 8 0 25 1;
#X connect 9 0 10 0;
#X connect 9 1 17 0;
#X connect 10 0 20 0;
#X connect 11 0 14 0;
#X connect 12 0 0 0;
#X connect 13 0 15 0;
#X connect 13 1 18 0;
#X connect 14 0 13 0;
#X connect 14 0 17 1;
#X connect 15 0 10 0;
#X connect 16 0 22 0;
#X connect 17 0 20 0;
#X connect 18 0 12 0;
#X connect 20 0 8 0;
#X connect 21 0 0 0;
#X connect 23 0 25 0;
#X connect 25 0 24 0;
#X coords 0 -1 1 1 92 40 1 150 100;
